<?xml version="1.0" encoding="utf-8"?>
<!-- Generator: Adobe Illustrator 18.1.0, SVG Export Plug-In . SVG Version: 6.00 Build 0)  -->
<svg version="1.1" id="Layer_1" xmlns="http://www.w3.org/2000/svg" xmlns:xlink="http://www.w3.org/1999/xlink" x="0px" y="0px"
	 viewBox="0 0 5.8 5" enable-background="new 0 0 5.8 5" xml:space="preserve">
<g opacity="0.25">
	<polygon opacity="0.2" fill="#86C2B3" points="212.1,1317.6 253.4,1317.6 232.7,1281.9 212.1,1246.2 191.5,1281.9 170.9,1317.6 	
		"/>
	<polygon opacity="0.2" fill="#86C2B3" points="129.7,1317.6 170.9,1317.6 150.3,1281.9 129.7,1246.2 109.1,1281.9 88.5,1317.6 	"/>
	<polygon opacity="0.2" fill="#86C2B3" points="294.6,1317.6 335.8,1317.6 315.2,1281.9 294.6,1246.2 274,1281.9 253.4,1317.6 	"/>
	<polygon opacity="0.2" fill="#86C2B3" points="377,1317.6 418.2,1317.6 397.6,1281.9 377,1246.2 356.4,1281.9 335.8,1317.6 	"/>
	<polygon opacity="0.2" fill="#86C2B3" points="459.5,1317.6 500.7,1317.6 480.1,1281.9 459.5,1246.2 438.9,1281.9 418.2,1317.6 	
		"/>
	<polygon opacity="0.2" fill="#86C2B3" points="541.9,1317.6 583.1,1317.6 562.5,1281.9 541.9,1246.2 521.3,1281.9 500.7,1317.6 	
		"/>
	<polygon opacity="0.2" fill="#86C2B3" points="624.3,1317.6 665.6,1317.6 645,1281.9 624.3,1246.2 603.7,1281.9 583.1,1317.6 	"/>
	<polygon opacity="0.2" fill="#86C2B3" points="706.8,1317.6 748,1317.6 727.4,1281.9 706.8,1246.2 686.2,1281.9 665.6,1317.6 	"/>
	<polygon opacity="0.2" fill="#86C2B3" points="789.2,1317.6 830.4,1317.6 809.8,1281.9 789.2,1246.2 768.6,1281.9 748,1317.6 	"/>
	<polygon opacity="0.2" fill="#86C2B3" points="871.7,1317.6 912.9,1317.6 892.3,1281.9 871.7,1246.2 851.1,1281.9 830.4,1317.6 	
		"/>
	<polygon opacity="0.2" fill="#86C2B3" points="954.1,1317.6 995.3,1317.6 974.7,1281.9 954.1,1246.2 933.5,1281.9 912.9,1317.6 	
		"/>
	<polygon opacity="0.2" fill="#86C2B3" points="1036.6,1317.6 1077.8,1317.6 1057.2,1281.9 1036.6,1246.2 1015.9,1281.9 
		995.3,1317.6 	"/>
	<polygon opacity="0.2" fill="#86C2B3" points="1119,1317.6 1160.2,1317.6 1139.6,1281.9 1119,1246.2 1098.4,1281.9 1077.8,1317.6 	
		"/>
	<polygon opacity="0.2" fill="#86C2B3" points="1201.4,1317.6 1242.7,1317.6 1222,1281.9 1201.4,1246.2 1180.8,1281.9 
		1160.2,1317.6 	"/>
	<polygon opacity="0.2" fill="#86C2B3" points="1283.9,1317.6 1325.1,1317.6 1304.5,1281.9 1283.9,1246.2 1263.3,1281.9 
		1242.7,1317.6 	"/>
	<polygon opacity="0.2" fill="#86C2B3" points="1366.3,1317.6 1407.5,1317.6 1386.9,1281.9 1366.3,1246.2 1345.7,1281.9 
		1325.1,1317.6 	"/>
	<polygon opacity="0.2" fill="#86C2B3" points="1448.8,1317.6 1490,1317.6 1469.4,1281.9 1448.8,1246.2 1428.2,1281.9 
		1407.5,1317.6 	"/>
	<polygon opacity="0.3" fill="#86C2B3" points="170.9,1246.2 212.1,1246.2 191.5,1210.5 170.9,1174.8 150.3,1210.5 129.7,1246.2 	
		"/>
	<polygon opacity="0.3" fill="#86C2B3" points="253.4,1246.2 294.6,1246.2 274,1210.5 253.4,1174.8 232.7,1210.5 212.1,1246.2 	"/>
	<polygon opacity="0.3" fill="#86C2B3" points="335.8,1246.2 377,1246.2 356.4,1210.5 335.8,1174.8 315.2,1210.5 294.6,1246.2 	"/>
	<polygon opacity="0.3" fill="#86C2B3" points="418.2,1246.2 459.5,1246.2 438.9,1210.5 418.2,1174.8 397.6,1210.5 377,1246.2 	"/>
	<polygon opacity="0.3" fill="#86C2B3" points="500.7,1246.2 541.9,1246.2 521.3,1210.5 500.7,1174.8 480.1,1210.5 459.5,1246.2 	
		"/>
	<polygon opacity="0.3" fill="#86C2B3" points="583.1,1246.2 624.3,1246.2 603.7,1210.5 583.1,1174.8 562.5,1210.5 541.9,1246.2 	
		"/>
	<polygon opacity="0.3" fill="#86C2B3" points="665.6,1246.2 706.8,1246.2 686.2,1210.5 665.6,1174.8 645,1210.5 624.3,1246.2 	"/>
	<polygon opacity="0.3" fill="#86C2B3" points="748,1246.2 789.2,1246.2 768.6,1210.5 748,1174.8 727.4,1210.5 706.8,1246.2 	"/>
	<polygon opacity="0.3" fill="#86C2B3" points="830.4,1246.2 871.7,1246.2 851.1,1210.5 830.4,1174.8 809.8,1210.5 789.2,1246.2 	
		"/>
	<polygon opacity="0.3" fill="#86C2B3" points="912.9,1246.2 954.1,1246.2 933.5,1210.5 912.9,1174.8 892.3,1210.5 871.7,1246.2 	
		"/>
	<polygon opacity="0.3" fill="#86C2B3" points="995.3,1246.2 1036.6,1246.2 1015.9,1210.5 995.3,1174.8 974.7,1210.5 954.1,1246.2 	
		"/>
	<polygon opacity="0.3" fill="#86C2B3" points="1077.8,1246.2 1119,1246.2 1098.4,1210.5 1077.8,1174.8 1057.2,1210.5 
		1036.6,1246.2 	"/>
	<polygon opacity="0.3" fill="#86C2B3" points="1160.2,1246.2 1201.4,1246.2 1180.8,1210.5 1160.2,1174.8 1139.6,1210.5 
		1119,1246.2 	"/>
	<polygon opacity="0.3" fill="#86C2B3" points="1242.7,1246.2 1283.9,1246.2 1263.3,1210.5 1242.7,1174.8 1222,1210.5 
		1201.4,1246.2 	"/>
	<polygon opacity="0.3" fill="#86C2B3" points="1325.1,1246.2 1366.3,1246.2 1345.7,1210.5 1325.1,1174.8 1304.5,1210.5 
		1283.9,1246.2 	"/>
	<polygon opacity="0.3" fill="#86C2B3" points="1407.5,1246.2 1448.8,1246.2 1428.2,1210.5 1407.5,1174.8 1386.9,1210.5 
		1366.3,1246.2 	"/>
	<polygon opacity="0.4" fill="#86C2B3" points="212.1,1174.8 253.4,1174.8 232.7,1139.1 212.1,1103.4 191.5,1139.1 170.9,1174.8 	
		"/>
	<polygon opacity="0.4" fill="#86C2B3" points="129.7,1174.8 170.9,1174.8 150.3,1139.1 129.7,1103.4 109.1,1139.1 88.5,1174.8 	"/>
	<polygon opacity="0.4" fill="#86C2B3" points="294.6,1174.8 335.8,1174.8 315.2,1139.1 294.6,1103.4 274,1139.1 253.4,1174.8 	"/>
	<polygon opacity="0.4" fill="#86C2B3" points="377,1174.8 418.2,1174.8 397.6,1139.1 377,1103.4 356.4,1139.1 335.8,1174.8 	"/>
	<polygon opacity="0.4" fill="#86C2B3" points="459.5,1174.8 500.7,1174.8 480.1,1139.1 459.5,1103.4 438.9,1139.1 418.2,1174.8 	
		"/>
	<polygon opacity="0.4" fill="#86C2B3" points="541.9,1174.8 583.1,1174.8 562.5,1139.1 541.9,1103.4 521.3,1139.1 500.7,1174.8 	
		"/>
	<polygon opacity="0.4" fill="#86C2B3" points="624.3,1174.8 665.6,1174.8 645,1139.1 624.3,1103.4 603.7,1139.1 583.1,1174.8 	"/>
	<polygon opacity="0.4" fill="#86C2B3" points="706.8,1174.8 748,1174.8 727.4,1139.1 706.8,1103.4 686.2,1139.1 665.6,1174.8 	"/>
	<polygon opacity="0.4" fill="#86C2B3" points="789.2,1174.8 830.4,1174.8 809.8,1139.1 789.2,1103.4 768.6,1139.1 748,1174.8 	"/>
	<polygon opacity="0.4" fill="#86C2B3" points="871.7,1174.8 912.9,1174.8 892.3,1139.1 871.7,1103.4 851.1,1139.1 830.4,1174.8 	
		"/>
	<polygon opacity="0.4" fill="#86C2B3" points="954.1,1174.8 995.3,1174.8 974.7,1139.1 954.1,1103.4 933.5,1139.1 912.9,1174.8 	
		"/>
	<polygon opacity="0.4" fill="#86C2B3" points="1036.6,1174.8 1077.8,1174.8 1057.2,1139.1 1036.6,1103.4 1015.9,1139.1 
		995.3,1174.8 	"/>
	<polygon opacity="0.4" fill="#86C2B3" points="1119,1174.8 1160.2,1174.8 1139.6,1139.1 1119,1103.4 1098.4,1139.1 1077.8,1174.8 	
		"/>
	<polygon opacity="0.4" fill="#86C2B3" points="1201.4,1174.8 1242.7,1174.8 1222,1139.1 1201.4,1103.4 1180.8,1139.1 
		1160.2,1174.8 	"/>
	<polygon opacity="0.4" fill="#86C2B3" points="1283.9,1174.8 1325.1,1174.8 1304.5,1139.1 1283.9,1103.4 1263.3,1139.1 
		1242.7,1174.8 	"/>
	<polygon opacity="0.4" fill="#86C2B3" points="1366.3,1174.8 1407.5,1174.8 1386.9,1139.1 1366.3,1103.4 1345.7,1139.1 
		1325.1,1174.8 	"/>
	<polygon opacity="0.4" fill="#86C2B3" points="1448.8,1174.8 1490,1174.8 1469.4,1139.1 1448.8,1103.4 1428.2,1139.1 
		1407.5,1174.8 	"/>
	<polygon opacity="0.5" fill="#86C2B3" points="170.9,1103.4 212.1,1103.4 191.5,1067.7 170.9,1032 150.3,1067.7 129.7,1103.4 	"/>
	<polygon opacity="0.5" fill="#86C2B3" points="253.4,1103.4 294.6,1103.4 274,1067.7 253.4,1032 232.7,1067.7 212.1,1103.4 	"/>
	<polygon opacity="0.5" fill="#86C2B3" points="335.8,1103.4 377,1103.4 356.4,1067.7 335.8,1032 315.2,1067.7 294.6,1103.4 	"/>
	<polygon opacity="0.5" fill="#86C2B3" points="418.2,1103.4 459.5,1103.4 438.9,1067.7 418.2,1032 397.6,1067.7 377,1103.4 	"/>
	<polygon opacity="0.5" fill="#86C2B3" points="500.7,1103.4 541.9,1103.4 521.3,1067.7 500.7,1032 480.1,1067.7 459.5,1103.4 	"/>
	<polygon opacity="0.5" fill="#86C2B3" points="583.1,1103.4 624.3,1103.4 603.7,1067.7 583.1,1032 562.5,1067.7 541.9,1103.4 	"/>
	<polygon opacity="0.5" fill="#86C2B3" points="665.6,1103.4 706.8,1103.4 686.2,1067.7 665.6,1032 645,1067.7 624.3,1103.4 	"/>
	<polygon opacity="0.5" fill="#86C2B3" points="748,1103.4 789.2,1103.4 768.6,1067.7 748,1032 727.4,1067.7 706.8,1103.4 	"/>
	<polygon opacity="0.5" fill="#86C2B3" points="830.4,1103.4 871.7,1103.4 851.1,1067.7 830.4,1032 809.8,1067.7 789.2,1103.4 	"/>
	<polygon opacity="0.5" fill="#86C2B3" points="912.9,1103.4 954.1,1103.4 933.5,1067.7 912.9,1032 892.3,1067.7 871.7,1103.4 	"/>
	<polygon opacity="0.5" fill="#86C2B3" points="995.3,1103.4 1036.6,1103.4 1015.9,1067.7 995.3,1032 974.7,1067.7 954.1,1103.4 	
		"/>
	<polygon opacity="0.5" fill="#86C2B3" points="1077.8,1103.4 1119,1103.4 1098.4,1067.7 1077.8,1032 1057.2,1067.7 1036.6,1103.4 	
		"/>
	<polygon opacity="0.5" fill="#86C2B3" points="1160.2,1103.4 1201.4,1103.4 1180.8,1067.7 1160.2,1032 1139.6,1067.7 1119,1103.4 	
		"/>
	<polygon opacity="0.5" fill="#86C2B3" points="1242.7,1103.4 1283.9,1103.4 1263.3,1067.7 1242.7,1032 1222,1067.7 1201.4,1103.4 	
		"/>
	<polygon opacity="0.5" fill="#86C2B3" points="1325.1,1103.4 1366.3,1103.4 1345.7,1067.7 1325.1,1032 1304.5,1067.7 
		1283.9,1103.4 	"/>
	<polygon opacity="0.5" fill="#86C2B3" points="1407.5,1103.4 1448.8,1103.4 1428.2,1067.7 1407.5,1032 1386.9,1067.7 
		1366.3,1103.4 	"/>
	<polygon opacity="0.6" fill="#86C2B3" points="212.1,1032 253.4,1032 232.7,996.3 212.1,960.6 191.5,996.3 170.9,1032 	"/>
	<polygon opacity="0.6" fill="#86C2B3" points="129.7,1032 170.9,1032 150.3,996.3 129.7,960.6 109.1,996.3 88.5,1032 	"/>
	<polygon opacity="0.6" fill="#86C2B3" points="294.6,1032 335.8,1032 315.2,996.3 294.6,960.6 274,996.3 253.4,1032 	"/>
	<polygon opacity="0.6" fill="#86C2B3" points="377,1032 418.2,1032 397.6,996.3 377,960.6 356.4,996.3 335.8,1032 	"/>
	<polygon opacity="0.6" fill="#86C2B3" points="459.5,1032 500.7,1032 480.1,996.3 459.5,960.6 438.9,996.3 418.2,1032 	"/>
	<polygon opacity="0.6" fill="#86C2B3" points="541.9,1032 583.1,1032 562.5,996.3 541.9,960.6 521.3,996.3 500.7,1032 	"/>
	<polygon opacity="0.6" fill="#86C2B3" points="624.3,1032 665.6,1032 645,996.3 624.3,960.6 603.7,996.3 583.1,1032 	"/>
	<polygon opacity="0.6" fill="#86C2B3" points="706.8,1032 748,1032 727.4,996.3 706.8,960.6 686.2,996.3 665.6,1032 	"/>
	<polygon opacity="0.6" fill="#86C2B3" points="789.2,1032 830.4,1032 809.8,996.3 789.2,960.6 768.6,996.3 748,1032 	"/>
	<polygon opacity="0.6" fill="#86C2B3" points="871.7,1032 912.9,1032 892.3,996.3 871.7,960.6 851.1,996.3 830.4,1032 	"/>
	<polygon opacity="0.6" fill="#86C2B3" points="954.1,1032 995.3,1032 974.7,996.3 954.1,960.6 933.5,996.3 912.9,1032 	"/>
	<polygon opacity="0.6" fill="#86C2B3" points="1036.6,1032 1077.8,1032 1057.2,996.3 1036.6,960.6 1015.9,996.3 995.3,1032 	"/>
	<polygon opacity="0.6" fill="#86C2B3" points="1119,1032 1160.2,1032 1139.6,996.3 1119,960.6 1098.4,996.3 1077.8,1032 	"/>
	<polygon opacity="0.6" fill="#86C2B3" points="1201.4,1032 1242.7,1032 1222,996.3 1201.4,960.6 1180.8,996.3 1160.2,1032 	"/>
	<polygon opacity="0.6" fill="#86C2B3" points="1283.9,1032 1325.1,1032 1304.5,996.3 1283.9,960.6 1263.3,996.3 1242.7,1032 	"/>
	<polygon opacity="0.6" fill="#86C2B3" points="1366.3,1032 1407.5,1032 1386.9,996.3 1366.3,960.6 1345.7,996.3 1325.1,1032 	"/>
	<polygon opacity="0.6" fill="#86C2B3" points="1448.8,1032 1490,1032 1469.4,996.3 1448.8,960.6 1428.2,996.3 1407.5,1032 	"/>
	<polygon opacity="0.2" fill="#86C2B3" points="1531.2,1317.6 1572.4,1317.6 1551.8,1281.9 1531.2,1246.2 1510.6,1281.9 
		1490,1317.6 	"/>
	<polygon opacity="0.4" fill="#86C2B3" points="1531.2,1174.8 1572.4,1174.8 1551.8,1139.1 1531.2,1103.4 1510.6,1139.1 
		1490,1174.8 	"/>
	<polygon opacity="0.6" fill="#86C2B3" points="1531.2,1032 1572.4,1032 1551.8,996.3 1531.2,960.6 1510.6,996.3 1490,1032 	"/>
	<polygon opacity="0.7" fill="#86C2B3" points="170.9,960.6 212.1,960.6 191.5,924.9 170.9,889.2 150.3,924.9 129.7,960.6 	"/>
	<polygon opacity="0.7" fill="#86C2B3" points="253.4,960.6 294.6,960.6 274,924.9 253.4,889.2 232.7,924.9 212.1,960.6 	"/>
	<polygon opacity="0.7" fill="#86C2B3" points="335.8,960.6 377,960.6 356.4,924.9 335.8,889.2 315.2,924.9 294.6,960.6 	"/>
	<polygon opacity="0.7" fill="#86C2B3" points="418.2,960.6 459.5,960.6 438.9,924.9 418.2,889.2 397.6,924.9 377,960.6 	"/>
	<polygon opacity="0.7" fill="#86C2B3" points="500.7,960.6 541.9,960.6 521.3,924.9 500.7,889.2 480.1,924.9 459.5,960.6 	"/>
	<polygon opacity="0.7" fill="#86C2B3" points="583.1,960.6 624.3,960.6 603.7,924.9 583.1,889.2 562.5,924.9 541.9,960.6 	"/>
	<polygon opacity="0.7" fill="#86C2B3" points="665.6,960.6 706.8,960.6 686.2,924.9 665.6,889.2 645,924.9 624.3,960.6 	"/>
	<polygon opacity="0.7" fill="#86C2B3" points="748,960.6 789.2,960.6 768.6,924.9 748,889.2 727.4,924.9 706.8,960.6 	"/>
	<polygon opacity="0.7" fill="#86C2B3" points="830.4,960.6 871.7,960.6 851.1,924.9 830.4,889.2 809.8,924.9 789.2,960.6 	"/>
	<polygon opacity="0.7" fill="#86C2B3" points="912.9,960.6 954.1,960.6 933.5,924.9 912.9,889.2 892.3,924.9 871.7,960.6 	"/>
	<polygon opacity="0.7" fill="#86C2B3" points="995.3,960.6 1036.6,960.6 1015.9,924.9 995.3,889.2 974.7,924.9 954.1,960.6 	"/>
	<polygon opacity="0.7" fill="#86C2B3" points="1077.8,960.6 1119,960.6 1098.4,924.9 1077.8,889.2 1057.2,924.9 1036.6,960.6 	"/>
	<polygon opacity="0.7" fill="#86C2B3" points="1160.2,960.6 1201.4,960.6 1180.8,924.9 1160.2,889.2 1139.6,924.9 1119,960.6 	"/>
	<polygon opacity="0.7" fill="#86C2B3" points="1242.7,960.6 1283.9,960.6 1263.3,924.9 1242.7,889.2 1222,924.9 1201.4,960.6 	"/>
	<polygon opacity="0.7" fill="#86C2B3" points="1325.1,960.6 1366.3,960.6 1345.7,924.9 1325.1,889.2 1304.5,924.9 1283.9,960.6 	
		"/>
	<polygon opacity="0.7" fill="#86C2B3" points="1407.5,960.6 1448.8,960.6 1428.2,924.9 1407.5,889.2 1386.9,924.9 1366.3,960.6 	
		"/>
	<polygon opacity="0.3" fill="#86C2B3" points="1490,1246.2 1531.2,1246.2 1510.6,1210.5 1490,1174.8 1469.4,1210.5 1448.8,1246.2 	
		"/>
	<polygon opacity="0.5" fill="#86C2B3" points="1490,1103.4 1531.2,1103.4 1510.6,1067.7 1490,1032 1469.4,1067.7 1448.8,1103.4 	
		"/>
	<polygon opacity="0.7" fill="#86C2B3" points="1490,960.6 1531.2,960.6 1510.6,924.9 1490,889.2 1469.4,924.9 1448.8,960.6 	"/>
	<polygon opacity="0.8" fill="#86C2B3" points="212.1,889.2 253.4,889.2 232.7,853.5 212.1,817.8 191.5,853.5 170.9,889.2 	"/>
	<polygon opacity="0.8" fill="#86C2B3" points="294.6,889.2 335.8,889.2 315.2,853.5 294.6,817.8 274,853.5 253.4,889.2 	"/>
	<polygon opacity="0.8" fill="#86C2B3" points="377,889.2 418.2,889.2 397.6,853.5 377,817.8 356.4,853.5 335.8,889.2 	"/>
	<polygon opacity="0.8" fill="#86C2B3" points="459.5,889.2 500.7,889.2 480.1,853.5 459.5,817.8 438.9,853.5 418.2,889.2 	"/>
	<polygon opacity="0.8" fill="#86C2B3" points="541.9,889.2 583.1,889.2 562.5,853.5 541.9,817.8 521.3,853.5 500.7,889.2 	"/>
	<polygon opacity="0.8" fill="#86C2B3" points="624.3,889.2 665.6,889.2 645,853.5 624.3,817.8 603.7,853.5 583.1,889.2 	"/>
	<polygon opacity="0.8" fill="#86C2B3" points="706.8,889.2 748,889.2 727.4,853.5 706.8,817.8 686.2,853.5 665.6,889.2 	"/>
	<polygon opacity="0.8" fill="#86C2B3" points="789.2,889.2 830.4,889.2 809.8,853.5 789.2,817.8 768.6,853.5 748,889.2 	"/>
	<polygon opacity="0.8" fill="#86C2B3" points="871.7,889.2 912.9,889.2 892.3,853.5 871.7,817.8 851.1,853.5 830.4,889.2 	"/>
	<polygon opacity="0.8" fill="#86C2B3" points="954.1,889.2 995.3,889.2 974.7,853.5 954.1,817.8 933.5,853.5 912.9,889.2 	"/>
	<polygon opacity="0.8" fill="#86C2B3" points="1036.6,889.2 1077.8,889.2 1057.2,853.5 1036.6,817.8 1015.9,853.5 995.3,889.2 	"/>
	<polygon opacity="0.8" fill="#86C2B3" points="1119,889.2 1160.2,889.2 1139.6,853.5 1119,817.8 1098.4,853.5 1077.8,889.2 	"/>
	<polygon opacity="0.8" fill="#86C2B3" points="1201.4,889.2 1242.7,889.2 1222,853.5 1201.4,817.8 1180.8,853.5 1160.2,889.2 	"/>
	<polygon opacity="0.8" fill="#86C2B3" points="1283.9,889.2 1325.1,889.2 1304.5,853.5 1283.9,817.8 1263.3,853.5 1242.7,889.2 	
		"/>
	<polygon opacity="0.8" fill="#86C2B3" points="1366.3,889.2 1407.5,889.2 1386.9,853.5 1366.3,817.8 1345.7,853.5 1325.1,889.2 	
		"/>
	<polygon opacity="0.8" fill="#86C2B3" points="1448.8,889.2 1490,889.2 1469.4,853.5 1448.8,817.8 1428.2,853.5 1407.5,889.2 	"/>
	<polygon opacity="0.9" fill="#86C2B3" points="253.4,818.8 294.6,818.8 274,783.1 253.4,747.4 232.7,783.1 212.1,818.8 	"/>
	<polygon opacity="0.9" fill="#86C2B3" points="170.9,818.8 212.1,818.8 191.5,783.1 170.9,747.4 150.3,783.1 129.7,818.8 	"/>
	<polygon opacity="0.9" fill="#86C2B3" points="335.8,818.8 377,818.8 356.4,783.1 335.8,747.4 315.2,783.1 294.6,818.8 	"/>
	<polygon opacity="0.9" fill="#86C2B3" points="418.2,818.8 459.5,818.8 438.9,783.1 418.2,747.4 397.6,783.1 377,818.8 	"/>
	<polygon opacity="0.9" fill="#86C2B3" points="500.7,818.8 541.9,818.8 521.3,783.1 500.7,747.4 480.1,783.1 459.5,818.8 	"/>
	<polygon opacity="0.9" fill="#86C2B3" points="583.1,818.8 624.3,818.8 603.7,783.1 583.1,747.4 562.5,783.1 541.9,818.8 	"/>
	<polygon opacity="0.9" fill="#86C2B3" points="665.6,818.8 706.8,818.8 686.2,783.1 665.6,747.4 645,783.1 624.3,818.8 	"/>
	<polygon opacity="0.9" fill="#86C2B3" points="748,818.8 789.2,818.8 768.6,783.1 748,747.4 727.4,783.1 706.8,818.8 	"/>
	<polygon opacity="0.9" fill="#86C2B3" points="830.4,818.8 871.7,818.8 851.1,783.1 830.4,747.4 809.8,783.1 789.2,818.8 	"/>
	<polygon opacity="0.9" fill="#86C2B3" points="912.9,818.8 954.1,818.8 933.5,783.1 912.9,747.4 892.3,783.1 871.7,818.8 	"/>
	<polygon opacity="0.9" fill="#86C2B3" points="995.3,818.8 1036.6,818.8 1015.9,783.1 995.3,747.4 974.7,783.1 954.1,818.8 	"/>
	<polygon opacity="0.9" fill="#86C2B3" points="1077.8,818.8 1119,818.8 1098.4,783.1 1077.8,747.4 1057.2,783.1 1036.6,818.8 	"/>
	<polygon opacity="0.9" fill="#86C2B3" points="1160.2,818.8 1201.4,818.8 1180.8,783.1 1160.2,747.4 1139.6,783.1 1119,818.8 	"/>
	<polygon opacity="0.9" fill="#86C2B3" points="1242.7,818.8 1283.9,818.8 1263.3,783.1 1242.7,747.4 1222,783.1 1201.4,818.8 	"/>
	<polygon opacity="0.9" fill="#86C2B3" points="1325.1,818.8 1366.3,818.8 1345.7,783.1 1325.1,747.4 1304.5,783.1 1283.9,818.8 	
		"/>
	<polygon opacity="0.9" fill="#86C2B3" points="1407.5,818.8 1448.8,818.8 1428.2,783.1 1407.5,747.4 1386.9,783.1 1366.3,818.8 	
		"/>
	<polygon opacity="0.9" fill="#86C2B3" points="1490,818.8 1531.2,818.8 1510.6,783.1 1490,747.4 1469.4,783.1 1448.8,818.8 	"/>
	<polygon opacity="0.8" fill="#86C2B3" points="129.7,889.2 170.9,889.2 150.3,853.5 129.7,817.8 109.1,853.5 88.5,889.2 	"/>
	<polygon fill="#86C2B3" points="129.7,747.4 170.9,747.4 150.3,711.7 129.7,676 109.1,711.7 88.5,747.4 	"/>
	<polygon fill="#86C2B3" points="212.1,747.4 253.4,747.4 232.7,711.7 212.1,676 191.5,711.7 170.9,747.4 	"/>
	<polygon fill="#86C2B3" points="294.6,747.4 335.8,747.4 315.2,711.7 294.6,676 274,711.7 253.4,747.4 	"/>
	<polygon fill="#86C2B3" points="377,747.4 418.2,747.4 397.6,711.7 377,676 356.4,711.7 335.8,747.4 	"/>
	<polygon fill="#86C2B3" points="459.5,747.4 500.7,747.4 480.1,711.7 459.5,676 438.9,711.7 418.2,747.4 	"/>
	<polygon fill="#86C2B3" points="541.9,747.4 583.1,747.4 562.5,711.7 541.9,676 521.3,711.7 500.7,747.4 	"/>
	<polygon fill="#86C2B3" points="624.3,747.4 665.6,747.4 645,711.7 624.3,676 603.7,711.7 583.1,747.4 	"/>
	<polygon fill="#86C2B3" points="706.8,747.4 748,747.4 727.4,711.7 706.8,676 686.2,711.7 665.6,747.4 	"/>
	<polygon fill="#86C2B3" points="789.2,747.4 830.4,747.4 809.8,711.7 789.2,676 768.6,711.7 748,747.4 	"/>
	<polygon fill="#86C2B3" points="871.7,747.4 912.9,747.4 892.3,711.7 871.7,676 851.1,711.7 830.4,747.4 	"/>
	<polygon fill="#86C2B3" points="954.1,747.4 995.3,747.4 974.7,711.7 954.1,676 933.5,711.7 912.9,747.4 	"/>
	<polygon fill="#86C2B3" points="1036.6,747.4 1077.8,747.4 1057.2,711.7 1036.6,676 1015.9,711.7 995.3,747.4 	"/>
	<polygon fill="#86C2B3" points="1119,747.4 1160.2,747.4 1139.6,711.7 1119,676 1098.4,711.7 1077.8,747.4 	"/>
	<polygon fill="#86C2B3" points="1201.4,747.4 1242.7,747.4 1222,711.7 1201.4,676 1180.8,711.7 1160.2,747.4 	"/>
	<polygon fill="#86C2B3" points="1283.9,747.4 1325.1,747.4 1304.5,711.7 1283.9,676 1263.3,711.7 1242.7,747.4 	"/>
	<polygon fill="#86C2B3" points="1366.3,747.4 1407.5,747.4 1386.9,711.7 1366.3,676 1345.7,711.7 1325.1,747.4 	"/>
	<polygon fill="#86C2B3" points="1448.8,747.4 1490,747.4 1469.4,711.7 1448.8,676 1428.2,711.7 1407.5,747.4 	"/>
	<polygon opacity="0.8" fill="#86C2B3" points="1531.2,889.2 1572.4,889.2 1551.8,853.5 1531.2,817.8 1510.6,853.5 1490,889.2 	"/>
	<polygon fill="#86C2B3" points="1531.2,747.4 1572.4,747.4 1551.8,711.7 1531.2,676 1510.6,711.7 1490,747.4 	"/>
	<polygon fill="#86C2B3" points="170.9,676 212.1,676 191.5,640.3 170.9,604.6 150.3,640.3 129.7,676 	"/>
	<polygon fill="#86C2B3" points="253.4,676 294.6,676 274,640.3 253.4,604.6 232.7,640.3 212.1,676 	"/>
	<polygon fill="#86C2B3" points="335.8,676 377,676 356.4,640.3 335.8,604.6 315.2,640.3 294.6,676 	"/>
	<polygon fill="#86C2B3" points="418.2,676 459.5,676 438.9,640.3 418.2,604.6 397.6,640.3 377,676 	"/>
	<polygon fill="#86C2B3" points="500.7,676 541.9,676 521.3,640.3 500.7,604.6 480.1,640.3 459.5,676 	"/>
	<polygon fill="#86C2B3" points="583.1,676 624.3,676 603.7,640.3 583.1,604.6 562.5,640.3 541.9,676 	"/>
	<polygon fill="#86C2B3" points="665.6,676 706.8,676 686.2,640.3 665.6,604.6 645,640.3 624.3,676 	"/>
	<polygon fill="#86C2B3" points="748,676 789.2,676 768.6,640.3 748,604.6 727.4,640.3 706.8,676 	"/>
	<polygon fill="#86C2B3" points="830.4,676 871.7,676 851.1,640.3 830.4,604.6 809.8,640.3 789.2,676 	"/>
	<polygon fill="#86C2B3" points="912.9,676 954.1,676 933.5,640.3 912.9,604.6 892.3,640.3 871.7,676 	"/>
	<polygon fill="#86C2B3" points="995.3,676 1036.6,676 1015.9,640.3 995.3,604.6 974.7,640.3 954.1,676 	"/>
	<polygon fill="#86C2B3" points="1077.8,676 1119,676 1098.4,640.3 1077.8,604.6 1057.2,640.3 1036.6,676 	"/>
	<polygon fill="#86C2B3" points="1160.2,676 1201.4,676 1180.8,640.3 1160.2,604.6 1139.6,640.3 1119,676 	"/>
	<polygon fill="#86C2B3" points="1242.7,676 1283.9,676 1263.3,640.3 1242.7,604.6 1222,640.3 1201.4,676 	"/>
	<polygon fill="#86C2B3" points="1325.1,676 1366.3,676 1345.7,640.3 1325.1,604.6 1304.5,640.3 1283.9,676 	"/>
	<polygon fill="#86C2B3" points="1407.5,676 1448.8,676 1428.2,640.3 1407.5,604.6 1386.9,640.3 1366.3,676 	"/>
	<polygon opacity="0.9" fill="#86C2B3" points="212.1,604.6 253.4,604.6 232.7,568.9 212.1,533.2 191.5,568.9 170.9,604.6 	"/>
	<polygon opacity="0.9" fill="#86C2B3" points="129.7,604.6 170.9,604.6 150.3,568.9 129.7,533.2 109.1,568.9 88.5,604.6 	"/>
	<polygon opacity="0.9" fill="#86C2B3" points="294.6,604.6 335.8,604.6 315.2,568.9 294.6,533.2 274,568.9 253.4,604.6 	"/>
	<polygon opacity="0.9" fill="#86C2B3" points="377,604.6 418.2,604.6 397.6,568.9 377,533.2 356.4,568.9 335.8,604.6 	"/>
	<polygon opacity="0.9" fill="#86C2B3" points="459.5,604.6 500.7,604.6 480.1,568.9 459.5,533.2 438.9,568.9 418.2,604.6 	"/>
	<polygon opacity="0.9" fill="#86C2B3" points="541.9,604.6 583.1,604.6 562.5,568.9 541.9,533.2 521.3,568.9 500.7,604.6 	"/>
	<polygon opacity="0.9" fill="#86C2B3" points="624.3,604.6 665.6,604.6 645,568.9 624.3,533.2 603.7,568.9 583.1,604.6 	"/>
	<polygon opacity="0.9" fill="#86C2B3" points="706.8,604.6 748,604.6 727.4,568.9 706.8,533.2 686.2,568.9 665.6,604.6 	"/>
	<polygon opacity="0.9" fill="#86C2B3" points="789.2,604.6 830.4,604.6 809.8,568.9 789.2,533.2 768.6,568.9 748,604.6 	"/>
	<polygon opacity="0.9" fill="#86C2B3" points="871.7,604.6 912.9,604.6 892.3,568.9 871.7,533.2 851.1,568.9 830.4,604.6 	"/>
	<polygon opacity="0.9" fill="#86C2B3" points="954.1,604.6 995.3,604.6 974.7,568.9 954.1,533.2 933.5,568.9 912.9,604.6 	"/>
	<polygon opacity="0.9" fill="#86C2B3" points="1036.6,604.6 1077.8,604.6 1057.2,568.9 1036.6,533.2 1015.9,568.9 995.3,604.6 	"/>
	<polygon opacity="0.9" fill="#86C2B3" points="1119,604.6 1160.2,604.6 1139.6,568.9 1119,533.2 1098.4,568.9 1077.8,604.6 	"/>
	<polygon opacity="0.9" fill="#86C2B3" points="1201.4,604.6 1242.7,604.6 1222,568.9 1201.4,533.2 1180.8,568.9 1160.2,604.6 	"/>
	<polygon opacity="0.9" fill="#86C2B3" points="1283.9,604.6 1325.1,604.6 1304.5,568.9 1283.9,533.2 1263.3,568.9 1242.7,604.6 	
		"/>
	<polygon opacity="0.9" fill="#86C2B3" points="1366.3,604.6 1407.5,604.6 1386.9,568.9 1366.3,533.2 1345.7,568.9 1325.1,604.6 	
		"/>
	<polygon opacity="0.9" fill="#86C2B3" points="1448.8,604.6 1490,604.6 1469.4,568.9 1448.8,533.2 1428.2,568.9 1407.5,604.6 	"/>
	<polygon opacity="0.8" fill="#86C2B3" points="170.9,534.2 212.1,534.2 191.5,498.5 170.9,462.8 150.3,498.5 129.7,534.2 	"/>
	<polygon opacity="0.8" fill="#86C2B3" points="253.4,534.2 294.6,534.2 274,498.5 253.4,462.8 232.7,498.5 212.1,534.2 	"/>
	<polygon opacity="0.8" fill="#86C2B3" points="335.8,534.2 377,534.2 356.4,498.5 335.8,462.8 315.2,498.5 294.6,534.2 	"/>
	<polygon opacity="0.8" fill="#86C2B3" points="418.2,534.2 459.5,534.2 438.9,498.5 418.2,462.8 397.6,498.5 377,534.2 	"/>
	<polygon opacity="0.8" fill="#86C2B3" points="500.7,534.2 541.9,534.2 521.3,498.5 500.7,462.8 480.1,498.5 459.5,534.2 	"/>
	<polygon opacity="0.8" fill="#86C2B3" points="583.1,534.2 624.3,534.2 603.7,498.5 583.1,462.8 562.5,498.5 541.9,534.2 	"/>
	<polygon opacity="0.8" fill="#86C2B3" points="665.6,534.2 706.8,534.2 686.2,498.5 665.6,462.8 645,498.5 624.3,534.2 	"/>
	<polygon opacity="0.8" fill="#86C2B3" points="748,534.2 789.2,534.2 768.6,498.5 748,462.8 727.4,498.5 706.8,534.2 	"/>
	<polygon opacity="0.8" fill="#86C2B3" points="830.4,534.2 871.7,534.2 851.1,498.5 830.4,462.8 809.8,498.5 789.2,534.2 	"/>
	<polygon opacity="0.8" fill="#86C2B3" points="912.9,534.2 954.1,534.2 933.5,498.5 912.9,462.8 892.3,498.5 871.7,534.2 	"/>
	<polygon opacity="0.8" fill="#86C2B3" points="995.3,534.2 1036.6,534.2 1015.9,498.5 995.3,462.8 974.7,498.5 954.1,534.2 	"/>
	<polygon opacity="0.8" fill="#86C2B3" points="1077.8,534.2 1119,534.2 1098.4,498.5 1077.8,462.8 1057.2,498.5 1036.6,534.2 	"/>
	<polygon opacity="0.8" fill="#86C2B3" points="1160.2,534.2 1201.4,534.2 1180.8,498.5 1160.2,462.8 1139.6,498.5 1119,534.2 	"/>
	<polygon opacity="0.8" fill="#86C2B3" points="1242.7,534.2 1283.9,534.2 1263.3,498.5 1242.7,462.8 1222,498.5 1201.4,534.2 	"/>
	<polygon opacity="0.8" fill="#86C2B3" points="1325.1,534.2 1366.3,534.2 1345.7,498.5 1325.1,462.8 1304.5,498.5 1283.9,534.2 	
		"/>
	<polygon opacity="0.8" fill="#86C2B3" points="1407.5,534.2 1448.8,534.2 1428.2,498.5 1407.5,462.8 1386.9,498.5 1366.3,534.2 	
		"/>
	<polygon opacity="0.7" fill="#86C2B3" points="212.1,462.8 253.4,462.8 232.7,427.1 212.1,391.4 191.5,427.1 170.9,462.8 	"/>
	<polygon opacity="0.7" fill="#86C2B3" points="129.7,462.8 170.9,462.8 150.3,427.1 129.7,391.4 109.1,427.1 88.5,462.8 	"/>
	<polygon opacity="0.7" fill="#86C2B3" points="294.6,462.8 335.8,462.8 315.2,427.1 294.6,391.4 274,427.1 253.4,462.8 	"/>
	<polygon opacity="0.7" fill="#86C2B3" points="377,462.8 418.2,462.8 397.6,427.1 377,391.4 356.4,427.1 335.8,462.8 	"/>
	<polygon opacity="0.7" fill="#86C2B3" points="459.5,462.8 500.7,462.8 480.1,427.1 459.5,391.4 438.9,427.1 418.2,462.8 	"/>
	<polygon opacity="0.7" fill="#86C2B3" points="541.9,462.8 583.1,462.8 562.5,427.1 541.9,391.4 521.3,427.1 500.7,462.8 	"/>
	<polygon opacity="0.7" fill="#86C2B3" points="624.3,462.8 665.6,462.8 645,427.1 624.3,391.4 603.7,427.1 583.1,462.8 	"/>
	<polygon opacity="0.7" fill="#86C2B3" points="706.8,462.8 748,462.8 727.4,427.1 706.8,391.4 686.2,427.1 665.6,462.8 	"/>
	<polygon opacity="0.7" fill="#86C2B3" points="789.2,462.8 830.4,462.8 809.8,427.1 789.2,391.4 768.6,427.1 748,462.8 	"/>
	<polygon opacity="0.7" fill="#86C2B3" points="871.7,462.8 912.9,462.8 892.3,427.1 871.7,391.4 851.1,427.1 830.4,462.8 	"/>
	<polygon opacity="0.7" fill="#86C2B3" points="954.1,462.8 995.3,462.8 974.7,427.1 954.1,391.4 933.5,427.1 912.9,462.8 	"/>
	<polygon opacity="0.7" fill="#86C2B3" points="1036.6,462.8 1077.8,462.8 1057.2,427.1 1036.6,391.4 1015.9,427.1 995.3,462.8 	"/>
	<polygon opacity="0.7" fill="#86C2B3" points="1119,462.8 1160.2,462.8 1139.6,427.1 1119,391.4 1098.4,427.1 1077.8,462.8 	"/>
	<polygon opacity="0.7" fill="#86C2B3" points="1201.4,462.8 1242.7,462.8 1222,427.1 1201.4,391.4 1180.8,427.1 1160.2,462.8 	"/>
	<polygon opacity="0.7" fill="#86C2B3" points="1283.9,462.8 1325.1,462.8 1304.5,427.1 1283.9,391.4 1263.3,427.1 1242.7,462.8 	
		"/>
	<polygon opacity="0.7" fill="#86C2B3" points="1366.3,462.8 1407.5,462.8 1386.9,427.1 1366.3,391.4 1345.7,427.1 1325.1,462.8 	
		"/>
	<polygon opacity="0.7" fill="#86C2B3" points="1448.8,462.8 1490,462.8 1469.4,427.1 1448.8,391.4 1428.2,427.1 1407.5,462.8 	"/>
	<polygon opacity="0.6" fill="#86C2B3" points="170.9,391.4 212.1,391.4 191.5,355.7 170.9,320 150.3,355.7 129.7,391.4 	"/>
	<polygon opacity="0.6" fill="#86C2B3" points="253.4,391.4 294.6,391.4 274,355.7 253.4,320 232.7,355.7 212.1,391.4 	"/>
	<polygon opacity="0.6" fill="#86C2B3" points="335.8,391.4 377,391.4 356.4,355.7 335.8,320 315.2,355.7 294.6,391.4 	"/>
	<polygon opacity="0.6" fill="#86C2B3" points="418.2,391.4 459.5,391.4 438.9,355.7 418.2,320 397.6,355.7 377,391.4 	"/>
	<polygon opacity="0.6" fill="#86C2B3" points="500.7,391.4 541.9,391.4 521.3,355.7 500.7,320 480.1,355.7 459.5,391.4 	"/>
	<polygon opacity="0.6" fill="#86C2B3" points="583.1,391.4 624.3,391.4 603.7,355.7 583.1,320 562.5,355.7 541.9,391.4 	"/>
	<polygon opacity="0.6" fill="#86C2B3" points="665.6,391.4 706.8,391.4 686.2,355.7 665.6,320 645,355.7 624.3,391.4 	"/>
	<polygon opacity="0.6" fill="#86C2B3" points="748,391.4 789.2,391.4 768.6,355.7 748,320 727.4,355.7 706.8,391.4 	"/>
	<polygon opacity="0.6" fill="#86C2B3" points="830.4,391.4 871.7,391.4 851.1,355.7 830.4,320 809.8,355.7 789.2,391.4 	"/>
	<polygon opacity="0.6" fill="#86C2B3" points="912.9,391.4 954.1,391.4 933.5,355.7 912.9,320 892.3,355.7 871.7,391.4 	"/>
	<polygon opacity="0.6" fill="#86C2B3" points="995.3,391.4 1036.6,391.4 1015.9,355.7 995.3,320 974.7,355.7 954.1,391.4 	"/>
	<polygon opacity="0.6" fill="#86C2B3" points="1077.8,391.4 1119,391.4 1098.4,355.7 1077.8,320 1057.2,355.7 1036.6,391.4 	"/>
	<polygon opacity="0.6" fill="#86C2B3" points="1160.2,391.4 1201.4,391.4 1180.8,355.7 1160.2,320 1139.6,355.7 1119,391.4 	"/>
	<polygon opacity="0.6" fill="#86C2B3" points="1242.7,391.4 1283.9,391.4 1263.3,355.7 1242.7,320 1222,355.7 1201.4,391.4 	"/>
	<polygon opacity="0.6" fill="#86C2B3" points="1325.1,391.4 1366.3,391.4 1345.7,355.7 1325.1,320 1304.5,355.7 1283.9,391.4 	"/>
	<polygon opacity="0.6" fill="#86C2B3" points="1407.5,391.4 1448.8,391.4 1428.2,355.7 1407.5,320 1386.9,355.7 1366.3,391.4 	"/>
	<polygon opacity="0.5" fill="#86C2B3" points="212.1,320 253.4,320 232.7,284.3 212.1,248.6 191.5,284.3 170.9,320 	"/>
	<polygon opacity="0.5" fill="#86C2B3" points="129.7,320 170.9,320 150.3,284.3 129.7,248.6 109.1,284.3 88.5,320 	"/>
	<polygon opacity="0.5" fill="#86C2B3" points="294.6,320 335.8,320 315.2,284.3 294.6,248.6 274,284.3 253.4,320 	"/>
	<polygon opacity="0.5" fill="#86C2B3" points="377,320 418.2,320 397.6,284.3 377,248.6 356.4,284.3 335.8,320 	"/>
	<polygon opacity="0.5" fill="#86C2B3" points="459.5,320 500.7,320 480.1,284.3 459.5,248.6 438.9,284.3 418.2,320 	"/>
	<polygon opacity="0.5" fill="#86C2B3" points="541.9,320 583.1,320 562.5,284.3 541.9,248.6 521.3,284.3 500.7,320 	"/>
	<polygon opacity="0.5" fill="#86C2B3" points="624.3,320 665.6,320 645,284.3 624.3,248.6 603.7,284.3 583.1,320 	"/>
	<polygon opacity="0.5" fill="#86C2B3" points="706.8,320 748,320 727.4,284.3 706.8,248.6 686.2,284.3 665.6,320 	"/>
	<polygon opacity="0.5" fill="#86C2B3" points="789.2,320 830.4,320 809.8,284.3 789.2,248.6 768.6,284.3 748,320 	"/>
	<polygon opacity="0.5" fill="#86C2B3" points="871.7,320 912.9,320 892.3,284.3 871.7,248.6 851.1,284.3 830.4,320 	"/>
	<polygon opacity="0.5" fill="#86C2B3" points="954.1,320 995.3,320 974.7,284.3 954.1,248.6 933.5,284.3 912.9,320 	"/>
	<polygon opacity="0.5" fill="#86C2B3" points="1036.6,320 1077.8,320 1057.2,284.3 1036.6,248.6 1015.9,284.3 995.3,320 	"/>
	<polygon opacity="0.5" fill="#86C2B3" points="1119,320 1160.2,320 1139.6,284.3 1119,248.6 1098.4,284.3 1077.8,320 	"/>
	<polygon opacity="0.5" fill="#86C2B3" points="1201.4,320 1242.7,320 1222,284.3 1201.4,248.6 1180.8,284.3 1160.2,320 	"/>
	<polygon opacity="0.5" fill="#86C2B3" points="1283.9,320 1325.1,320 1304.5,284.3 1283.9,248.6 1263.3,284.3 1242.7,320 	"/>
	<polygon opacity="0.5" fill="#86C2B3" points="1366.3,320 1407.5,320 1386.9,284.3 1366.3,248.6 1345.7,284.3 1325.1,320 	"/>
	<polygon opacity="0.5" fill="#86C2B3" points="1448.8,320 1490,320 1469.4,284.3 1448.8,248.6 1428.2,284.3 1407.5,320 	"/>
	<polygon opacity="0.9" fill="#86C2B3" points="1531.2,604.6 1572.4,604.6 1551.8,568.9 1531.2,533.2 1510.6,568.9 1490,604.6 	"/>
	<polygon opacity="0.7" fill="#86C2B3" points="1531.2,462.8 1572.4,462.8 1551.8,427.1 1531.2,391.4 1510.6,427.1 1490,462.8 	"/>
	<polygon opacity="0.5" fill="#86C2B3" points="1531.2,320 1572.4,320 1551.8,284.3 1531.2,248.6 1510.6,284.3 1490,320 	"/>
	<polygon opacity="0.4" fill="#86C2B3" points="170.9,248.6 212.1,248.6 191.5,212.9 170.9,177.2 150.3,212.9 129.7,248.6 	"/>
	<polygon opacity="0.4" fill="#86C2B3" points="253.4,248.6 294.6,248.6 274,212.9 253.4,177.2 232.7,212.9 212.1,248.6 	"/>
	<polygon opacity="0.4" fill="#86C2B3" points="335.8,248.6 377,248.6 356.4,212.9 335.8,177.2 315.2,212.9 294.6,248.6 	"/>
	<polygon opacity="0.4" fill="#86C2B3" points="418.2,248.6 459.5,248.6 438.9,212.9 418.2,177.2 397.6,212.9 377,248.6 	"/>
	<polygon opacity="0.4" fill="#86C2B3" points="500.7,248.6 541.9,248.6 521.3,212.9 500.7,177.2 480.1,212.9 459.5,248.6 	"/>
	<polygon opacity="0.4" fill="#86C2B3" points="583.1,248.6 624.3,248.6 603.7,212.9 583.1,177.2 562.5,212.9 541.9,248.6 	"/>
	<polygon opacity="0.4" fill="#86C2B3" points="665.6,248.6 706.8,248.6 686.2,212.9 665.6,177.2 645,212.9 624.3,248.6 	"/>
	<polygon opacity="0.4" fill="#86C2B3" points="748,248.6 789.2,248.6 768.6,212.9 748,177.2 727.4,212.9 706.8,248.6 	"/>
	<polygon opacity="0.4" fill="#86C2B3" points="830.4,248.6 871.7,248.6 851.1,212.9 830.4,177.2 809.8,212.9 789.2,248.6 	"/>
	<polygon opacity="0.4" fill="#86C2B3" points="912.9,248.6 954.1,248.6 933.5,212.9 912.9,177.2 892.3,212.9 871.7,248.6 	"/>
	<polygon opacity="0.4" fill="#86C2B3" points="995.3,248.6 1036.6,248.6 1015.9,212.9 995.3,177.2 974.7,212.9 954.1,248.6 	"/>
	<polygon opacity="0.4" fill="#86C2B3" points="1077.8,248.6 1119,248.6 1098.4,212.9 1077.8,177.2 1057.2,212.9 1036.6,248.6 	"/>
	<polygon opacity="0.4" fill="#86C2B3" points="1160.2,248.6 1201.4,248.6 1180.8,212.9 1160.2,177.2 1139.6,212.9 1119,248.6 	"/>
	<polygon opacity="0.4" fill="#86C2B3" points="1242.7,248.6 1283.9,248.6 1263.3,212.9 1242.7,177.2 1222,212.9 1201.4,248.6 	"/>
	<polygon opacity="0.4" fill="#86C2B3" points="1325.1,248.6 1366.3,248.6 1345.7,212.9 1325.1,177.2 1304.5,212.9 1283.9,248.6 	
		"/>
	<polygon opacity="0.4" fill="#86C2B3" points="1407.5,248.6 1448.8,248.6 1428.2,212.9 1407.5,177.2 1386.9,212.9 1366.3,248.6 	
		"/>
	<polygon fill="#86C2B3" points="1490,676 1531.2,676 1510.6,640.3 1490,604.6 1469.4,640.3 1448.8,676 	"/>
	<polygon opacity="0.8" fill="#86C2B3" points="1490,534.2 1531.2,534.2 1510.6,498.5 1490,462.8 1469.4,498.5 1448.8,534.2 	"/>
	<polygon opacity="0.6" fill="#86C2B3" points="1490,391.4 1531.2,391.4 1510.6,355.7 1490,320 1469.4,355.7 1448.8,391.4 	"/>
	<polygon opacity="0.4" fill="#86C2B3" points="1490,248.6 1531.2,248.6 1510.6,212.9 1490,177.2 1469.4,212.9 1448.8,248.6 	"/>
	<polygon opacity="0.3" fill="#86C2B3" points="212.1,177.2 253.4,177.2 232.7,141.5 212.1,105.8 191.5,141.5 170.9,177.2 	"/>
	<polygon opacity="0.3" fill="#86C2B3" points="294.6,177.2 335.8,177.2 315.2,141.5 294.6,105.8 274,141.5 253.4,177.2 	"/>
	<polygon opacity="0.3" fill="#86C2B3" points="377,177.2 418.2,177.2 397.6,141.5 377,105.8 356.4,141.5 335.8,177.2 	"/>
	<polygon opacity="0.3" fill="#86C2B3" points="459.5,177.2 500.7,177.2 480.1,141.5 459.5,105.8 438.9,141.5 418.2,177.2 	"/>
	<polygon opacity="0.3" fill="#86C2B3" points="541.9,177.2 583.1,177.2 562.5,141.5 541.9,105.8 521.3,141.5 500.7,177.2 	"/>
	<polygon opacity="0.3" fill="#86C2B3" points="624.3,177.2 665.6,177.2 645,141.5 624.3,105.8 603.7,141.5 583.1,177.2 	"/>
	<polygon opacity="0.3" fill="#86C2B3" points="706.8,177.2 748,177.2 727.4,141.5 706.8,105.8 686.2,141.5 665.6,177.2 	"/>
	<polygon opacity="0.3" fill="#86C2B3" points="789.2,177.2 830.4,177.2 809.8,141.5 789.2,105.8 768.6,141.5 748,177.2 	"/>
	<polygon opacity="0.3" fill="#86C2B3" points="871.7,177.2 912.9,177.2 892.3,141.5 871.7,105.8 851.1,141.5 830.4,177.2 	"/>
	<polygon opacity="0.3" fill="#86C2B3" points="954.1,177.2 995.3,177.2 974.7,141.5 954.1,105.8 933.5,141.5 912.9,177.2 	"/>
	<polygon opacity="0.3" fill="#86C2B3" points="1036.6,177.2 1077.8,177.2 1057.2,141.5 1036.6,105.8 1015.9,141.5 995.3,177.2 	"/>
	<polygon opacity="0.3" fill="#86C2B3" points="1119,177.2 1160.2,177.2 1139.6,141.5 1119,105.8 1098.4,141.5 1077.8,177.2 	"/>
	<polygon opacity="0.3" fill="#86C2B3" points="1201.4,177.2 1242.7,177.2 1222,141.5 1201.4,105.8 1180.8,141.5 1160.2,177.2 	"/>
	<polygon opacity="0.3" fill="#86C2B3" points="1283.9,177.2 1325.1,177.2 1304.5,141.5 1283.9,105.8 1263.3,141.5 1242.7,177.2 	
		"/>
	<polygon opacity="0.3" fill="#86C2B3" points="1366.3,177.2 1407.5,177.2 1386.9,141.5 1366.3,105.8 1345.7,141.5 1325.1,177.2 	
		"/>
	<polygon opacity="0.3" fill="#86C2B3" points="1448.8,177.2 1490,177.2 1469.4,141.5 1448.8,105.8 1428.2,141.5 1407.5,177.2 	"/>
	<polygon opacity="0.2" fill="#86C2B3" points="253.4,105.8 294.6,105.8 274,70.1 253.4,34.4 232.7,70.1 212.1,105.8 	"/>
	<polygon opacity="0.2" fill="#86C2B3" points="170.9,105.8 212.1,105.8 191.5,70.1 170.9,34.4 150.3,70.1 129.7,105.8 	"/>
	<polygon opacity="0.2" fill="#86C2B3" points="335.8,105.8 377,105.8 356.4,70.1 335.8,34.4 315.2,70.1 294.6,105.8 	"/>
	<polygon opacity="0.2" fill="#86C2B3" points="418.2,105.8 459.5,105.8 438.9,70.1 418.2,34.4 397.6,70.1 377,105.8 	"/>
	<polygon opacity="0.2" fill="#86C2B3" points="500.7,105.8 541.9,105.8 521.3,70.1 500.7,34.4 480.1,70.1 459.5,105.8 	"/>
	<polygon opacity="0.2" fill="#86C2B3" points="583.1,105.8 624.3,105.8 603.7,70.1 583.1,34.4 562.5,70.1 541.9,105.8 	"/>
	<polygon opacity="0.2" fill="#86C2B3" points="665.6,105.8 706.8,105.8 686.2,70.1 665.6,34.4 645,70.1 624.3,105.8 	"/>
	<polygon opacity="0.2" fill="#86C2B3" points="748,105.8 789.2,105.8 768.6,70.1 748,34.4 727.4,70.1 706.8,105.8 	"/>
	<polygon opacity="0.2" fill="#86C2B3" points="830.4,105.8 871.7,105.8 851.1,70.1 830.4,34.4 809.8,70.1 789.2,105.8 	"/>
	<polygon opacity="0.2" fill="#86C2B3" points="912.9,105.8 954.1,105.8 933.5,70.1 912.9,34.4 892.3,70.1 871.7,105.8 	"/>
	<polygon opacity="0.2" fill="#86C2B3" points="995.3,105.8 1036.6,105.8 1015.9,70.1 995.3,34.4 974.7,70.1 954.1,105.8 	"/>
	<polygon opacity="0.2" fill="#86C2B3" points="1077.8,105.8 1119,105.8 1098.4,70.1 1077.8,34.4 1057.2,70.1 1036.6,105.8 	"/>
	<polygon opacity="0.2" fill="#86C2B3" points="1160.2,105.8 1201.4,105.8 1180.8,70.1 1160.2,34.4 1139.6,70.1 1119,105.8 	"/>
	<polygon opacity="0.2" fill="#86C2B3" points="1242.7,105.8 1283.9,105.8 1263.3,70.1 1242.7,34.4 1222,70.1 1201.4,105.8 	"/>
	<polygon opacity="0.2" fill="#86C2B3" points="1325.1,105.8 1366.3,105.8 1345.7,70.1 1325.1,34.4 1304.5,70.1 1283.9,105.8 	"/>
	<polygon opacity="0.2" fill="#86C2B3" points="1407.5,105.8 1448.8,105.8 1428.2,70.1 1407.5,34.4 1386.9,70.1 1366.3,105.8 	"/>
	<polygon opacity="0.2" fill="#86C2B3" points="1490,105.8 1531.2,105.8 1510.6,70.1 1490,34.4 1469.4,70.1 1448.8,105.8 	"/>
	<polygon opacity="0.3" fill="#86C2B3" points="130.4,177.2 171.7,177.2 151.1,141.5 130.4,105.8 109.8,141.5 89.2,177.2 	"/>
	<polygon opacity="0.3" fill="#86C2B3" points="1531.2,177.2 1572.4,177.2 1551.8,141.5 1531.2,105.8 1510.6,141.5 1490,177.2 	"/>
</g>
<g opacity="0.25">
	<polygon opacity="0.2" fill="#86C2B3" points="1359.5,1248.2 1400.8,1248.2 1380.1,1212.5 1359.5,1176.8 1338.9,1212.5 
		1318.3,1248.2 	"/>
	<polygon opacity="0.2" fill="#86C2B3" points="1277.1,1248.2 1318.3,1248.2 1297.7,1212.5 1277.1,1176.8 1256.5,1212.5 
		1235.9,1248.2 	"/>
	<polygon opacity="0.2" fill="#86C2B3" points="1442,1248.2 1483.2,1248.2 1462.6,1212.5 1442,1176.8 1421.4,1212.5 1400.8,1248.2 	
		"/>
	<polygon opacity="0.2" fill="#86C2B3" points="1524.4,1248.2 1565.6,1248.2 1545,1212.5 1524.4,1176.8 1503.8,1212.5 
		1483.2,1248.2 	"/>
	<polygon opacity="0.2" fill="#86C2B3" points="1606.9,1248.2 1648.1,1248.2 1627.5,1212.5 1606.9,1176.8 1586.2,1212.5 
		1565.6,1248.2 	"/>
	<polygon opacity="0.2" fill="#86C2B3" points="1689.3,1248.2 1730.5,1248.2 1709.9,1212.5 1689.3,1176.8 1668.7,1212.5 
		1648.1,1248.2 	"/>
	<polygon opacity="0.2" fill="#86C2B3" points="1771.7,1248.2 1813,1248.2 1792.4,1212.5 1771.7,1176.8 1751.1,1212.5 
		1730.5,1248.2 	"/>
	<polygon opacity="0.2" fill="#86C2B3" points="1854.2,1248.2 1895.4,1248.2 1874.8,1212.5 1854.2,1176.8 1833.6,1212.5 
		1813,1248.2 	"/>
	<polygon opacity="0.2" fill="#86C2B3" points="1936.6,1248.2 1977.8,1248.2 1957.2,1212.5 1936.6,1176.8 1916,1212.5 
		1895.4,1248.2 	"/>
	<polygon opacity="0.2" fill="#86C2B3" points="2019.1,1248.2 2060.3,1248.2 2039.7,1212.5 2019.1,1176.8 1998.5,1212.5 
		1977.8,1248.2 	"/>
	<polygon opacity="0.2" fill="#86C2B3" points="2101.5,1248.2 2142.7,1248.2 2122.1,1212.5 2101.5,1176.8 2080.9,1212.5 
		2060.3,1248.2 	"/>
	<polygon opacity="0.2" fill="#86C2B3" points="2184,1248.2 2225.2,1248.2 2204.6,1212.5 2184,1176.8 2163.3,1212.5 2142.7,1248.2 	
		"/>
	<polygon opacity="0.2" fill="#86C2B3" points="2266.4,1248.2 2307.6,1248.2 2287,1212.5 2266.4,1176.8 2245.8,1212.5 
		2225.2,1248.2 	"/>
	<polygon opacity="0.2" fill="#86C2B3" points="2348.8,1248.2 2390.1,1248.2 2369.4,1212.5 2348.8,1176.8 2328.2,1212.5 
		2307.6,1248.2 	"/>
	<polygon opacity="0.2" fill="#86C2B3" points="2431.3,1248.2 2472.5,1248.2 2451.9,1212.5 2431.3,1176.8 2410.7,1212.5 
		2390.1,1248.2 	"/>
	<polygon opacity="0.2" fill="#86C2B3" points="2513.7,1248.2 2554.9,1248.2 2534.3,1212.5 2513.7,1176.8 2493.1,1212.5 
		2472.5,1248.2 	"/>
	<polygon opacity="0.2" fill="#86C2B3" points="2596.2,1248.2 2637.4,1248.2 2616.8,1212.5 2596.2,1176.8 2575.5,1212.5 
		2554.9,1248.2 	"/>
	<polygon opacity="0.3" fill="#86C2B3" points="1318.3,1176.8 1359.5,1176.8 1338.9,1141.1 1318.3,1105.4 1297.7,1141.1 
		1277.1,1176.8 	"/>
	<polygon opacity="0.3" fill="#86C2B3" points="1400.8,1176.8 1442,1176.8 1421.4,1141.1 1400.8,1105.4 1380.1,1141.1 
		1359.5,1176.8 	"/>
	<polygon opacity="0.3" fill="#86C2B3" points="1483.2,1176.8 1524.4,1176.8 1503.8,1141.1 1483.2,1105.4 1462.6,1141.1 
		1442,1176.8 	"/>
	<polygon opacity="0.3" fill="#86C2B3" points="1565.6,1176.8 1606.9,1176.8 1586.2,1141.1 1565.6,1105.4 1545,1141.1 
		1524.4,1176.8 	"/>
	<polygon opacity="0.3" fill="#86C2B3" points="1648.1,1176.8 1689.3,1176.8 1668.7,1141.1 1648.1,1105.4 1627.5,1141.1 
		1606.9,1176.8 	"/>
	<polygon opacity="0.3" fill="#86C2B3" points="1730.5,1176.8 1771.7,1176.8 1751.1,1141.1 1730.5,1105.4 1709.9,1141.1 
		1689.3,1176.8 	"/>
	<polygon opacity="0.3" fill="#86C2B3" points="1813,1176.8 1854.2,1176.8 1833.6,1141.1 1813,1105.4 1792.4,1141.1 1771.7,1176.8 	
		"/>
	<polygon opacity="0.3" fill="#86C2B3" points="1895.4,1176.8 1936.6,1176.8 1916,1141.1 1895.4,1105.4 1874.8,1141.1 
		1854.2,1176.8 	"/>
	<polygon opacity="0.3" fill="#86C2B3" points="1977.8,1176.8 2019.1,1176.8 1998.5,1141.1 1977.8,1105.4 1957.2,1141.1 
		1936.6,1176.8 	"/>
	<polygon opacity="0.3" fill="#86C2B3" points="2060.3,1176.8 2101.5,1176.8 2080.9,1141.1 2060.3,1105.4 2039.7,1141.1 
		2019.1,1176.8 	"/>
	<polygon opacity="0.3" fill="#86C2B3" points="2142.7,1176.8 2184,1176.8 2163.3,1141.1 2142.7,1105.4 2122.1,1141.1 
		2101.5,1176.8 	"/>
	<polygon opacity="0.3" fill="#86C2B3" points="2225.2,1176.8 2266.4,1176.8 2245.8,1141.1 2225.2,1105.4 2204.6,1141.1 
		2184,1176.8 	"/>
	<polygon opacity="0.3" fill="#86C2B3" points="2307.6,1176.8 2348.8,1176.8 2328.2,1141.1 2307.6,1105.4 2287,1141.1 
		2266.4,1176.8 	"/>
	<polygon opacity="0.3" fill="#86C2B3" points="2390.1,1176.8 2431.3,1176.8 2410.7,1141.1 2390.1,1105.4 2369.4,1141.1 
		2348.8,1176.8 	"/>
	<polygon opacity="0.3" fill="#86C2B3" points="2472.5,1176.8 2513.7,1176.8 2493.1,1141.1 2472.5,1105.4 2451.9,1141.1 
		2431.3,1176.8 	"/>
	<polygon opacity="0.3" fill="#86C2B3" points="2554.9,1176.8 2596.2,1176.8 2575.5,1141.1 2554.9,1105.4 2534.3,1141.1 
		2513.7,1176.8 	"/>
	<polygon opacity="0.4" fill="#86C2B3" points="1359.5,1105.4 1400.8,1105.4 1380.1,1069.7 1359.5,1034 1338.9,1069.7 
		1318.3,1105.4 	"/>
	<polygon opacity="0.4" fill="#86C2B3" points="1277.1,1105.4 1318.3,1105.4 1297.7,1069.7 1277.1,1034 1256.5,1069.7 
		1235.9,1105.4 	"/>
	<polygon opacity="0.4" fill="#86C2B3" points="1442,1105.4 1483.2,1105.4 1462.6,1069.7 1442,1034 1421.4,1069.7 1400.8,1105.4 	
		"/>
	<polygon opacity="0.4" fill="#86C2B3" points="1524.4,1105.4 1565.6,1105.4 1545,1069.7 1524.4,1034 1503.8,1069.7 1483.2,1105.4 	
		"/>
	<polygon opacity="0.4" fill="#86C2B3" points="1606.9,1105.4 1648.1,1105.4 1627.5,1069.7 1606.9,1034 1586.2,1069.7 
		1565.6,1105.4 	"/>
	<polygon opacity="0.4" fill="#86C2B3" points="1689.3,1105.4 1730.5,1105.4 1709.9,1069.7 1689.3,1034 1668.7,1069.7 
		1648.1,1105.4 	"/>
	<polygon opacity="0.4" fill="#86C2B3" points="1771.7,1105.4 1813,1105.4 1792.4,1069.7 1771.7,1034 1751.1,1069.7 1730.5,1105.4 	
		"/>
	<polygon opacity="0.4" fill="#86C2B3" points="1854.2,1105.4 1895.4,1105.4 1874.8,1069.7 1854.2,1034 1833.6,1069.7 1813,1105.4 	
		"/>
	<polygon opacity="0.4" fill="#86C2B3" points="1936.6,1105.4 1977.8,1105.4 1957.2,1069.7 1936.6,1034 1916,1069.7 1895.4,1105.4 	
		"/>
	<polygon opacity="0.4" fill="#86C2B3" points="2019.1,1105.4 2060.3,1105.4 2039.7,1069.7 2019.1,1034 1998.5,1069.7 
		1977.8,1105.4 	"/>
	<polygon opacity="0.4" fill="#86C2B3" points="2101.5,1105.4 2142.7,1105.4 2122.1,1069.7 2101.5,1034 2080.9,1069.7 
		2060.3,1105.4 	"/>
	<polygon opacity="0.4" fill="#86C2B3" points="2184,1105.4 2225.2,1105.4 2204.6,1069.7 2184,1034 2163.3,1069.7 2142.7,1105.4 	
		"/>
	<polygon opacity="0.4" fill="#86C2B3" points="2266.4,1105.4 2307.6,1105.4 2287,1069.7 2266.4,1034 2245.8,1069.7 2225.2,1105.4 	
		"/>
	<polygon opacity="0.4" fill="#86C2B3" points="2348.8,1105.4 2390.1,1105.4 2369.4,1069.7 2348.8,1034 2328.2,1069.7 
		2307.6,1105.4 	"/>
	<polygon opacity="0.4" fill="#86C2B3" points="2431.3,1105.4 2472.5,1105.4 2451.9,1069.7 2431.3,1034 2410.7,1069.7 
		2390.1,1105.4 	"/>
	<polygon opacity="0.4" fill="#86C2B3" points="2513.7,1105.4 2554.9,1105.4 2534.3,1069.7 2513.7,1034 2493.1,1069.7 
		2472.5,1105.4 	"/>
	<polygon opacity="0.4" fill="#86C2B3" points="2596.2,1105.4 2637.4,1105.4 2616.8,1069.7 2596.2,1034 2575.5,1069.7 
		2554.9,1105.4 	"/>
	<polygon opacity="0.5" fill="#86C2B3" points="1318.3,1034 1359.5,1034 1338.9,998.3 1318.3,962.6 1297.7,998.3 1277.1,1034 	"/>
	<polygon opacity="0.5" fill="#86C2B3" points="1400.8,1034 1442,1034 1421.4,998.3 1400.8,962.6 1380.1,998.3 1359.5,1034 	"/>
	<polygon opacity="0.5" fill="#86C2B3" points="1483.2,1034 1524.4,1034 1503.8,998.3 1483.2,962.6 1462.6,998.3 1442,1034 	"/>
	<polygon opacity="0.5" fill="#86C2B3" points="1565.6,1034 1606.9,1034 1586.2,998.3 1565.6,962.6 1545,998.3 1524.4,1034 	"/>
	<polygon opacity="0.5" fill="#86C2B3" points="1648.1,1034 1689.3,1034 1668.7,998.3 1648.1,962.6 1627.5,998.3 1606.9,1034 	"/>
	<polygon opacity="0.5" fill="#86C2B3" points="1730.5,1034 1771.7,1034 1751.1,998.3 1730.5,962.6 1709.9,998.3 1689.3,1034 	"/>
	<polygon opacity="0.5" fill="#86C2B3" points="1813,1034 1854.2,1034 1833.6,998.3 1813,962.6 1792.4,998.3 1771.7,1034 	"/>
	<polygon opacity="0.5" fill="#86C2B3" points="1895.4,1034 1936.6,1034 1916,998.3 1895.4,962.6 1874.8,998.3 1854.2,1034 	"/>
	<polygon opacity="0.5" fill="#86C2B3" points="1977.8,1034 2019.1,1034 1998.5,998.3 1977.8,962.6 1957.2,998.3 1936.6,1034 	"/>
	<polygon opacity="0.5" fill="#86C2B3" points="2060.3,1034 2101.5,1034 2080.9,998.3 2060.3,962.6 2039.7,998.3 2019.1,1034 	"/>
	<polygon opacity="0.5" fill="#86C2B3" points="2142.7,1034 2184,1034 2163.3,998.3 2142.7,962.6 2122.1,998.3 2101.5,1034 	"/>
	<polygon opacity="0.5" fill="#86C2B3" points="2225.2,1034 2266.4,1034 2245.8,998.3 2225.2,962.6 2204.6,998.3 2184,1034 	"/>
	<polygon opacity="0.5" fill="#86C2B3" points="2307.6,1034 2348.8,1034 2328.2,998.3 2307.6,962.6 2287,998.3 2266.4,1034 	"/>
	<polygon opacity="0.5" fill="#86C2B3" points="2390.1,1034 2431.3,1034 2410.7,998.3 2390.1,962.6 2369.4,998.3 2348.8,1034 	"/>
	<polygon opacity="0.5" fill="#86C2B3" points="2472.5,1034 2513.7,1034 2493.1,998.3 2472.5,962.6 2451.9,998.3 2431.3,1034 	"/>
	<polygon opacity="0.5" fill="#86C2B3" points="2554.9,1034 2596.2,1034 2575.5,998.3 2554.9,962.6 2534.3,998.3 2513.7,1034 	"/>
	<polygon opacity="0.6" fill="#86C2B3" points="1359.5,962.6 1400.8,962.6 1380.1,926.9 1359.5,891.2 1338.9,926.9 1318.3,962.6 	
		"/>
	<polygon opacity="0.6" fill="#86C2B3" points="1277.1,962.6 1318.3,962.6 1297.7,926.9 1277.1,891.2 1256.5,926.9 1235.9,962.6 	
		"/>
	<polygon opacity="0.6" fill="#86C2B3" points="1442,962.6 1483.2,962.6 1462.6,926.9 1442,891.2 1421.4,926.9 1400.8,962.6 	"/>
	<polygon opacity="0.6" fill="#86C2B3" points="1524.4,962.6 1565.6,962.6 1545,926.9 1524.4,891.2 1503.8,926.9 1483.2,962.6 	"/>
	<polygon opacity="0.6" fill="#86C2B3" points="1606.9,962.6 1648.1,962.6 1627.5,926.9 1606.9,891.2 1586.2,926.9 1565.6,962.6 	
		"/>
	<polygon opacity="0.6" fill="#86C2B3" points="1689.3,962.6 1730.5,962.6 1709.9,926.9 1689.3,891.2 1668.7,926.9 1648.1,962.6 	
		"/>
	<polygon opacity="0.6" fill="#86C2B3" points="1771.7,962.6 1813,962.6 1792.4,926.9 1771.7,891.2 1751.1,926.9 1730.5,962.6 	"/>
	<polygon opacity="0.6" fill="#86C2B3" points="1854.2,962.6 1895.4,962.6 1874.8,926.9 1854.2,891.2 1833.6,926.9 1813,962.6 	"/>
	<polygon opacity="0.6" fill="#86C2B3" points="1936.6,962.6 1977.8,962.6 1957.2,926.9 1936.6,891.2 1916,926.9 1895.4,962.6 	"/>
	<polygon opacity="0.6" fill="#86C2B3" points="2019.1,962.6 2060.3,962.6 2039.7,926.9 2019.1,891.2 1998.5,926.9 1977.8,962.6 	
		"/>
	<polygon opacity="0.6" fill="#86C2B3" points="2101.5,962.6 2142.7,962.6 2122.1,926.9 2101.5,891.2 2080.9,926.9 2060.3,962.6 	
		"/>
	<polygon opacity="0.6" fill="#86C2B3" points="2184,962.6 2225.2,962.6 2204.6,926.9 2184,891.2 2163.3,926.9 2142.7,962.6 	"/>
	<polygon opacity="0.6" fill="#86C2B3" points="2266.4,962.6 2307.6,962.6 2287,926.9 2266.4,891.2 2245.8,926.9 2225.2,962.6 	"/>
	<polygon opacity="0.6" fill="#86C2B3" points="2348.8,962.6 2390.1,962.6 2369.4,926.9 2348.8,891.2 2328.2,926.9 2307.6,962.6 	
		"/>
	<polygon opacity="0.6" fill="#86C2B3" points="2431.3,962.6 2472.5,962.6 2451.9,926.9 2431.3,891.2 2410.7,926.9 2390.1,962.6 	
		"/>
	<polygon opacity="0.6" fill="#86C2B3" points="2513.7,962.6 2554.9,962.6 2534.3,926.9 2513.7,891.2 2493.1,926.9 2472.5,962.6 	
		"/>
	<polygon opacity="0.6" fill="#86C2B3" points="2596.2,962.6 2637.4,962.6 2616.8,926.9 2596.2,891.2 2575.5,926.9 2554.9,962.6 	
		"/>
	<polygon opacity="0.2" fill="#86C2B3" points="2678.6,1248.2 2719.8,1248.2 2699.2,1212.5 2678.6,1176.8 2658,1212.5 
		2637.4,1248.2 	"/>
	<polygon opacity="0.4" fill="#86C2B3" points="2678.6,1105.4 2719.8,1105.4 2699.2,1069.7 2678.6,1034 2658,1069.7 2637.4,1105.4 	
		"/>
	<polygon opacity="0.6" fill="#86C2B3" points="2678.6,962.6 2719.8,962.6 2699.2,926.9 2678.6,891.2 2658,926.9 2637.4,962.6 	"/>
	<polygon opacity="0.7" fill="#86C2B3" points="1318.3,891.2 1359.5,891.2 1338.9,855.5 1318.3,819.8 1297.7,855.5 1277.1,891.2 	
		"/>
	<polygon opacity="0.7" fill="#86C2B3" points="1400.8,891.2 1442,891.2 1421.4,855.5 1400.8,819.8 1380.1,855.5 1359.5,891.2 	"/>
	<polygon opacity="0.7" fill="#86C2B3" points="1483.2,891.2 1524.4,891.2 1503.8,855.5 1483.2,819.8 1462.6,855.5 1442,891.2 	"/>
	<polygon opacity="0.7" fill="#86C2B3" points="1565.6,891.2 1606.9,891.2 1586.2,855.5 1565.6,819.8 1545,855.5 1524.4,891.2 	"/>
	<polygon opacity="0.7" fill="#86C2B3" points="1648.1,891.2 1689.3,891.2 1668.7,855.5 1648.1,819.8 1627.5,855.5 1606.9,891.2 	
		"/>
	<polygon opacity="0.7" fill="#86C2B3" points="1730.5,891.2 1771.7,891.2 1751.1,855.5 1730.5,819.8 1709.9,855.5 1689.3,891.2 	
		"/>
	<polygon opacity="0.7" fill="#86C2B3" points="1813,891.2 1854.2,891.2 1833.6,855.5 1813,819.8 1792.4,855.5 1771.7,891.2 	"/>
	<polygon opacity="0.7" fill="#86C2B3" points="1895.4,891.2 1936.6,891.2 1916,855.5 1895.4,819.8 1874.8,855.5 1854.2,891.2 	"/>
	<polygon opacity="0.7" fill="#86C2B3" points="1977.8,891.2 2019.1,891.2 1998.5,855.5 1977.8,819.8 1957.2,855.5 1936.6,891.2 	
		"/>
	<polygon opacity="0.7" fill="#86C2B3" points="2060.3,891.2 2101.5,891.2 2080.9,855.5 2060.3,819.8 2039.7,855.5 2019.1,891.2 	
		"/>
	<polygon opacity="0.7" fill="#86C2B3" points="2142.7,891.2 2184,891.2 2163.3,855.5 2142.7,819.8 2122.1,855.5 2101.5,891.2 	"/>
	<polygon opacity="0.7" fill="#86C2B3" points="2225.2,891.2 2266.4,891.2 2245.8,855.5 2225.2,819.8 2204.6,855.5 2184,891.2 	"/>
	<polygon opacity="0.7" fill="#86C2B3" points="2307.6,891.2 2348.8,891.2 2328.2,855.5 2307.6,819.8 2287,855.5 2266.4,891.2 	"/>
	<polygon opacity="0.7" fill="#86C2B3" points="2390.1,891.2 2431.3,891.2 2410.7,855.5 2390.1,819.8 2369.4,855.5 2348.8,891.2 	
		"/>
	<polygon opacity="0.7" fill="#86C2B3" points="2472.5,891.2 2513.7,891.2 2493.1,855.5 2472.5,819.8 2451.9,855.5 2431.3,891.2 	
		"/>
	<polygon opacity="0.7" fill="#86C2B3" points="2554.9,891.2 2596.2,891.2 2575.5,855.5 2554.9,819.8 2534.3,855.5 2513.7,891.2 	
		"/>
	<polygon opacity="0.3" fill="#86C2B3" points="2637.4,1176.8 2678.6,1176.8 2658,1141.1 2637.4,1105.4 2616.8,1141.1 
		2596.2,1176.8 	"/>
	<polygon opacity="0.5" fill="#86C2B3" points="2637.4,1034 2678.6,1034 2658,998.3 2637.4,962.6 2616.8,998.3 2596.2,1034 	"/>
	<polygon opacity="0.7" fill="#86C2B3" points="2637.4,891.2 2678.6,891.2 2658,855.5 2637.4,819.8 2616.8,855.5 2596.2,891.2 	"/>
	<polygon opacity="0.8" fill="#86C2B3" points="1359.5,819.8 1400.8,819.8 1380.1,784.1 1359.5,748.4 1338.9,784.1 1318.3,819.8 	
		"/>
	<polygon opacity="0.8" fill="#86C2B3" points="1442,819.8 1483.2,819.8 1462.6,784.1 1442,748.4 1421.4,784.1 1400.8,819.8 	"/>
	<polygon opacity="0.8" fill="#86C2B3" points="1524.4,819.8 1565.6,819.8 1545,784.1 1524.4,748.4 1503.8,784.1 1483.2,819.8 	"/>
	<polygon opacity="0.8" fill="#86C2B3" points="1606.9,819.8 1648.1,819.8 1627.5,784.1 1606.9,748.4 1586.2,784.1 1565.6,819.8 	
		"/>
	<polygon opacity="0.8" fill="#86C2B3" points="1689.3,819.8 1730.5,819.8 1709.9,784.1 1689.3,748.4 1668.7,784.1 1648.1,819.8 	
		"/>
	<polygon opacity="0.8" fill="#86C2B3" points="1771.7,819.8 1813,819.8 1792.4,784.1 1771.7,748.4 1751.1,784.1 1730.5,819.8 	"/>
	<polygon opacity="0.8" fill="#86C2B3" points="1854.2,819.8 1895.4,819.8 1874.8,784.1 1854.2,748.4 1833.6,784.1 1813,819.8 	"/>
	<polygon opacity="0.8" fill="#86C2B3" points="1936.6,819.8 1977.8,819.8 1957.2,784.1 1936.6,748.4 1916,784.1 1895.4,819.8 	"/>
	<polygon opacity="0.8" fill="#86C2B3" points="2019.1,819.8 2060.3,819.8 2039.7,784.1 2019.1,748.4 1998.5,784.1 1977.8,819.8 	
		"/>
	<polygon opacity="0.8" fill="#86C2B3" points="2101.5,819.8 2142.7,819.8 2122.1,784.1 2101.5,748.4 2080.9,784.1 2060.3,819.8 	
		"/>
	<polygon opacity="0.8" fill="#86C2B3" points="2184,819.8 2225.2,819.8 2204.6,784.1 2184,748.4 2163.3,784.1 2142.7,819.8 	"/>
	<polygon opacity="0.8" fill="#86C2B3" points="2266.4,819.8 2307.6,819.8 2287,784.1 2266.4,748.4 2245.8,784.1 2225.2,819.8 	"/>
	<polygon opacity="0.8" fill="#86C2B3" points="2348.8,819.8 2390.1,819.8 2369.4,784.1 2348.8,748.4 2328.2,784.1 2307.6,819.8 	
		"/>
	<polygon opacity="0.8" fill="#86C2B3" points="2431.3,819.8 2472.5,819.8 2451.9,784.1 2431.3,748.4 2410.7,784.1 2390.1,819.8 	
		"/>
	<polygon opacity="0.8" fill="#86C2B3" points="2513.7,819.8 2554.9,819.8 2534.3,784.1 2513.7,748.4 2493.1,784.1 2472.5,819.8 	
		"/>
	<polygon opacity="0.8" fill="#86C2B3" points="2596.2,819.8 2637.4,819.8 2616.8,784.1 2596.2,748.4 2575.5,784.1 2554.9,819.8 	
		"/>
	<polygon opacity="0.9" fill="#86C2B3" points="1400.8,749.4 1442,749.4 1421.4,713.7 1400.8,678.1 1380.1,713.7 1359.5,749.4 	"/>
	<polygon opacity="0.9" fill="#86C2B3" points="1318.3,749.4 1359.5,749.4 1338.9,713.7 1318.3,678.1 1297.7,713.7 1277.1,749.4 	
		"/>
	<polygon opacity="0.9" fill="#86C2B3" points="1483.2,749.4 1524.4,749.4 1503.8,713.7 1483.2,678.1 1462.6,713.7 1442,749.4 	"/>
	<polygon opacity="0.9" fill="#86C2B3" points="1565.6,749.4 1606.9,749.4 1586.2,713.7 1565.6,678.1 1545,713.7 1524.4,749.4 	"/>
	<polygon opacity="0.9" fill="#86C2B3" points="1648.1,749.4 1689.3,749.4 1668.7,713.7 1648.1,678.1 1627.5,713.7 1606.9,749.4 	
		"/>
	<polygon opacity="0.9" fill="#86C2B3" points="1730.5,749.4 1771.7,749.4 1751.1,713.7 1730.5,678.1 1709.9,713.7 1689.3,749.4 	
		"/>
	<polygon opacity="0.9" fill="#86C2B3" points="1813,749.4 1854.2,749.4 1833.6,713.7 1813,678.1 1792.4,713.7 1771.7,749.4 	"/>
	<polygon opacity="0.9" fill="#86C2B3" points="1895.4,749.4 1936.6,749.4 1916,713.7 1895.4,678.1 1874.8,713.7 1854.2,749.4 	"/>
	<polygon opacity="0.9" fill="#86C2B3" points="1977.8,749.4 2019.1,749.4 1998.5,713.7 1977.8,678.1 1957.2,713.7 1936.6,749.4 	
		"/>
	<polygon opacity="0.9" fill="#86C2B3" points="2060.3,749.4 2101.5,749.4 2080.9,713.7 2060.3,678.1 2039.7,713.7 2019.1,749.4 	
		"/>
	<polygon opacity="0.9" fill="#86C2B3" points="2142.7,749.4 2184,749.4 2163.3,713.7 2142.7,678.1 2122.1,713.7 2101.5,749.4 	"/>
	<polygon opacity="0.9" fill="#86C2B3" points="2225.2,749.4 2266.4,749.4 2245.8,713.7 2225.2,678.1 2204.6,713.7 2184,749.4 	"/>
	<polygon opacity="0.9" fill="#86C2B3" points="2307.6,749.4 2348.8,749.4 2328.2,713.7 2307.6,678.1 2287,713.7 2266.4,749.4 	"/>
	<polygon opacity="0.9" fill="#86C2B3" points="2390.1,749.4 2431.3,749.4 2410.7,713.7 2390.1,678.1 2369.4,713.7 2348.8,749.4 	
		"/>
	<polygon opacity="0.9" fill="#86C2B3" points="2472.5,749.4 2513.7,749.4 2493.1,713.7 2472.5,678.1 2451.9,713.7 2431.3,749.4 	
		"/>
	<polygon opacity="0.9" fill="#86C2B3" points="2554.9,749.4 2596.2,749.4 2575.5,713.7 2554.9,678.1 2534.3,713.7 2513.7,749.4 	
		"/>
	<polygon opacity="0.9" fill="#86C2B3" points="2637.4,749.4 2678.6,749.4 2658,713.7 2637.4,678.1 2616.8,713.7 2596.2,749.4 	"/>
	<polygon opacity="0.8" fill="#86C2B3" points="1277.1,819.8 1318.3,819.8 1297.7,784.1 1277.1,748.4 1256.5,784.1 1235.9,819.8 	
		"/>
	<polygon fill="#86C2B3" points="1277.1,678.1 1318.3,678.1 1297.7,642.4 1277.1,606.7 1256.5,642.4 1235.9,678.1 	"/>
	<polygon fill="#86C2B3" points="1359.5,678.1 1400.8,678.1 1380.1,642.4 1359.5,606.7 1338.9,642.4 1318.3,678.1 	"/>
	<polygon fill="#86C2B3" points="1442,678.1 1483.2,678.1 1462.6,642.4 1442,606.7 1421.4,642.4 1400.8,678.1 	"/>
	<polygon fill="#86C2B3" points="1524.4,678.1 1565.6,678.1 1545,642.4 1524.4,606.7 1503.8,642.4 1483.2,678.1 	"/>
	<polygon fill="#86C2B3" points="1606.9,678.1 1648.1,678.1 1627.5,642.4 1606.9,606.7 1586.2,642.4 1565.6,678.1 	"/>
	<polygon fill="#86C2B3" points="1689.3,678.1 1730.5,678.1 1709.9,642.4 1689.3,606.7 1668.7,642.4 1648.1,678.1 	"/>
	<polygon fill="#86C2B3" points="1771.7,678.1 1813,678.1 1792.4,642.4 1771.7,606.7 1751.1,642.4 1730.5,678.1 	"/>
	<polygon fill="#86C2B3" points="1854.2,678.1 1895.4,678.1 1874.8,642.4 1854.2,606.7 1833.6,642.4 1813,678.1 	"/>
	<polygon fill="#86C2B3" points="1936.6,678.1 1977.8,678.1 1957.2,642.4 1936.6,606.7 1916,642.4 1895.4,678.1 	"/>
	<polygon fill="#86C2B3" points="2019.1,678.1 2060.3,678.1 2039.7,642.4 2019.1,606.7 1998.5,642.4 1977.8,678.1 	"/>
	<polygon fill="#86C2B3" points="2101.5,678.1 2142.7,678.1 2122.1,642.4 2101.5,606.7 2080.9,642.4 2060.3,678.1 	"/>
	<polygon fill="#86C2B3" points="2184,678.1 2225.2,678.1 2204.6,642.4 2184,606.7 2163.3,642.4 2142.7,678.1 	"/>
	<polygon fill="#86C2B3" points="2266.4,678.1 2307.6,678.1 2287,642.4 2266.4,606.7 2245.8,642.4 2225.2,678.1 	"/>
	<polygon fill="#86C2B3" points="2348.8,678.1 2390.1,678.1 2369.4,642.4 2348.8,606.7 2328.2,642.4 2307.6,678.1 	"/>
	<polygon fill="#86C2B3" points="2431.3,678.1 2472.5,678.1 2451.9,642.4 2431.3,606.7 2410.7,642.4 2390.1,678.1 	"/>
	<polygon fill="#86C2B3" points="2513.7,678.1 2554.9,678.1 2534.3,642.4 2513.7,606.7 2493.1,642.4 2472.5,678.1 	"/>
	<polygon fill="#86C2B3" points="2596.2,678.1 2637.4,678.1 2616.8,642.4 2596.2,606.7 2575.5,642.4 2554.9,678.1 	"/>
	<polygon opacity="0.8" fill="#86C2B3" points="2678.6,819.8 2719.8,819.8 2699.2,784.1 2678.6,748.4 2658,784.1 2637.4,819.8 	"/>
	<polygon fill="#86C2B3" points="2678.6,678.1 2719.8,678.1 2699.2,642.4 2678.6,606.7 2658,642.4 2637.4,678.1 	"/>
	<polygon fill="#86C2B3" points="1318.3,606.7 1359.5,606.7 1338.9,571 1318.3,535.3 1297.7,571 1277.1,606.7 	"/>
	<polygon fill="#86C2B3" points="1400.8,606.7 1442,606.7 1421.4,571 1400.8,535.3 1380.1,571 1359.5,606.7 	"/>
	<polygon fill="#86C2B3" points="1483.2,606.7 1524.4,606.7 1503.8,571 1483.2,535.3 1462.6,571 1442,606.7 	"/>
	<polygon fill="#86C2B3" points="1565.6,606.7 1606.9,606.7 1586.2,571 1565.6,535.3 1545,571 1524.4,606.7 	"/>
	<polygon fill="#86C2B3" points="1648.1,606.7 1689.3,606.7 1668.7,571 1648.1,535.3 1627.5,571 1606.9,606.7 	"/>
	<polygon fill="#86C2B3" points="1730.5,606.7 1771.7,606.7 1751.1,571 1730.5,535.3 1709.9,571 1689.3,606.7 	"/>
	<polygon fill="#86C2B3" points="1813,606.7 1854.2,606.7 1833.6,571 1813,535.3 1792.4,571 1771.7,606.7 	"/>
	<polygon fill="#86C2B3" points="1895.4,606.7 1936.6,606.7 1916,571 1895.4,535.3 1874.8,571 1854.2,606.7 	"/>
	<polygon fill="#86C2B3" points="1977.8,606.7 2019.1,606.7 1998.5,571 1977.8,535.3 1957.2,571 1936.6,606.7 	"/>
	<polygon fill="#86C2B3" points="2060.3,606.7 2101.5,606.7 2080.9,571 2060.3,535.3 2039.7,571 2019.1,606.7 	"/>
	<polygon fill="#86C2B3" points="2142.7,606.7 2184,606.7 2163.3,571 2142.7,535.3 2122.1,571 2101.5,606.7 	"/>
	<polygon fill="#86C2B3" points="2225.2,606.7 2266.4,606.7 2245.8,571 2225.2,535.3 2204.6,571 2184,606.7 	"/>
	<polygon fill="#86C2B3" points="2307.6,606.7 2348.8,606.7 2328.2,571 2307.6,535.3 2287,571 2266.4,606.7 	"/>
	<polygon fill="#86C2B3" points="2390.1,606.7 2431.3,606.7 2410.7,571 2390.1,535.3 2369.4,571 2348.8,606.7 	"/>
	<polygon fill="#86C2B3" points="2472.5,606.7 2513.7,606.7 2493.1,571 2472.5,535.3 2451.9,571 2431.3,606.7 	"/>
	<polygon fill="#86C2B3" points="2554.9,606.7 2596.2,606.7 2575.5,571 2554.9,535.3 2534.3,571 2513.7,606.7 	"/>
	<polygon opacity="0.9" fill="#86C2B3" points="1359.5,535.3 1400.8,535.3 1380.1,499.6 1359.5,463.9 1338.9,499.6 1318.3,535.3 	
		"/>
	<polygon opacity="0.9" fill="#86C2B3" points="1277.1,535.3 1318.3,535.3 1297.7,499.6 1277.1,463.9 1256.5,499.6 1235.9,535.3 	
		"/>
	<polygon opacity="0.9" fill="#86C2B3" points="1442,535.3 1483.2,535.3 1462.6,499.6 1442,463.9 1421.4,499.6 1400.8,535.3 	"/>
	<polygon opacity="0.9" fill="#86C2B3" points="1524.4,535.3 1565.6,535.3 1545,499.6 1524.4,463.9 1503.8,499.6 1483.2,535.3 	"/>
	<polygon opacity="0.9" fill="#86C2B3" points="1606.9,535.3 1648.1,535.3 1627.5,499.6 1606.9,463.9 1586.2,499.6 1565.6,535.3 	
		"/>
	<polygon opacity="0.9" fill="#86C2B3" points="1689.3,535.3 1730.5,535.3 1709.9,499.6 1689.3,463.9 1668.7,499.6 1648.1,535.3 	
		"/>
	<polygon opacity="0.9" fill="#86C2B3" points="1771.7,535.3 1813,535.3 1792.4,499.6 1771.7,463.9 1751.1,499.6 1730.5,535.3 	"/>
	<polygon opacity="0.9" fill="#86C2B3" points="1854.2,535.3 1895.4,535.3 1874.8,499.6 1854.2,463.9 1833.6,499.6 1813,535.3 	"/>
	<polygon opacity="0.9" fill="#86C2B3" points="1936.6,535.3 1977.8,535.3 1957.2,499.6 1936.6,463.9 1916,499.6 1895.4,535.3 	"/>
	<polygon opacity="0.9" fill="#86C2B3" points="2019.1,535.3 2060.3,535.3 2039.7,499.6 2019.1,463.9 1998.5,499.6 1977.8,535.3 	
		"/>
	<polygon opacity="0.9" fill="#86C2B3" points="2101.5,535.3 2142.7,535.3 2122.1,499.6 2101.5,463.9 2080.9,499.6 2060.3,535.3 	
		"/>
	<polygon opacity="0.9" fill="#86C2B3" points="2184,535.3 2225.2,535.3 2204.6,499.6 2184,463.9 2163.3,499.6 2142.7,535.3 	"/>
	<polygon opacity="0.9" fill="#86C2B3" points="2266.4,535.3 2307.6,535.3 2287,499.6 2266.4,463.9 2245.8,499.6 2225.2,535.3 	"/>
	<polygon opacity="0.9" fill="#86C2B3" points="2348.8,535.3 2390.1,535.3 2369.4,499.6 2348.8,463.9 2328.2,499.6 2307.6,535.3 	
		"/>
	<polygon opacity="0.9" fill="#86C2B3" points="2431.3,535.3 2472.5,535.3 2451.9,499.6 2431.3,463.9 2410.7,499.6 2390.1,535.3 	
		"/>
	<polygon opacity="0.9" fill="#86C2B3" points="2513.7,535.3 2554.9,535.3 2534.3,499.6 2513.7,463.9 2493.1,499.6 2472.5,535.3 	
		"/>
	<polygon opacity="0.9" fill="#86C2B3" points="2596.2,535.3 2637.4,535.3 2616.8,499.6 2596.2,463.9 2575.5,499.6 2554.9,535.3 	
		"/>
	<polygon opacity="0.8" fill="#86C2B3" points="1318.3,464.9 1359.5,464.9 1338.9,429.2 1318.3,393.5 1297.7,429.2 1277.1,464.9 	
		"/>
	<polygon opacity="0.8" fill="#86C2B3" points="1400.8,464.9 1442,464.9 1421.4,429.2 1400.8,393.5 1380.1,429.2 1359.5,464.9 	"/>
	<polygon opacity="0.8" fill="#86C2B3" points="1483.2,464.9 1524.4,464.9 1503.8,429.2 1483.2,393.5 1462.6,429.2 1442,464.9 	"/>
	<polygon opacity="0.8" fill="#86C2B3" points="1565.6,464.9 1606.9,464.9 1586.2,429.2 1565.6,393.5 1545,429.2 1524.4,464.9 	"/>
	<polygon opacity="0.8" fill="#86C2B3" points="1648.1,464.9 1689.3,464.9 1668.7,429.2 1648.1,393.5 1627.5,429.2 1606.9,464.9 	
		"/>
	<polygon opacity="0.8" fill="#86C2B3" points="1730.5,464.9 1771.7,464.9 1751.1,429.2 1730.5,393.5 1709.9,429.2 1689.3,464.9 	
		"/>
	<polygon opacity="0.8" fill="#86C2B3" points="1813,464.9 1854.2,464.9 1833.6,429.2 1813,393.5 1792.4,429.2 1771.7,464.9 	"/>
	<polygon opacity="0.8" fill="#86C2B3" points="1895.4,464.9 1936.6,464.9 1916,429.2 1895.4,393.5 1874.8,429.2 1854.2,464.9 	"/>
	<polygon opacity="0.8" fill="#86C2B3" points="1977.8,464.9 2019.1,464.9 1998.5,429.2 1977.8,393.5 1957.2,429.2 1936.6,464.9 	
		"/>
	<polygon opacity="0.8" fill="#86C2B3" points="2060.3,464.9 2101.5,464.9 2080.9,429.2 2060.3,393.5 2039.7,429.2 2019.1,464.9 	
		"/>
	<polygon opacity="0.8" fill="#86C2B3" points="2142.7,464.9 2184,464.9 2163.3,429.2 2142.7,393.5 2122.1,429.2 2101.5,464.9 	"/>
	<polygon opacity="0.8" fill="#86C2B3" points="2225.2,464.9 2266.4,464.9 2245.8,429.2 2225.2,393.5 2204.6,429.2 2184,464.9 	"/>
	<polygon opacity="0.8" fill="#86C2B3" points="2307.6,464.9 2348.8,464.9 2328.2,429.2 2307.6,393.5 2287,429.2 2266.4,464.9 	"/>
	<polygon opacity="0.8" fill="#86C2B3" points="2390.1,464.9 2431.3,464.9 2410.7,429.2 2390.1,393.5 2369.4,429.2 2348.8,464.9 	
		"/>
	<polygon opacity="0.8" fill="#86C2B3" points="2472.5,464.9 2513.7,464.9 2493.1,429.2 2472.5,393.5 2451.9,429.2 2431.3,464.9 	
		"/>
	<polygon opacity="0.8" fill="#86C2B3" points="2554.9,464.9 2596.2,464.9 2575.5,429.2 2554.9,393.5 2534.3,429.2 2513.7,464.9 	
		"/>
	<polygon opacity="0.7" fill="#86C2B3" points="1359.5,393.5 1400.8,393.5 1380.1,357.8 1359.5,322.1 1338.9,357.8 1318.3,393.5 	
		"/>
	<polygon opacity="0.7" fill="#86C2B3" points="1277.1,393.5 1318.3,393.5 1297.7,357.8 1277.1,322.1 1256.5,357.8 1235.9,393.5 	
		"/>
	<polygon opacity="0.7" fill="#86C2B3" points="1442,393.5 1483.2,393.5 1462.6,357.8 1442,322.1 1421.4,357.8 1400.8,393.5 	"/>
	<polygon opacity="0.7" fill="#86C2B3" points="1524.4,393.5 1565.6,393.5 1545,357.8 1524.4,322.1 1503.8,357.8 1483.2,393.5 	"/>
	<polygon opacity="0.7" fill="#86C2B3" points="1606.9,393.5 1648.1,393.5 1627.5,357.8 1606.9,322.1 1586.2,357.8 1565.6,393.5 	
		"/>
	<polygon opacity="0.7" fill="#86C2B3" points="1689.3,393.5 1730.5,393.5 1709.9,357.8 1689.3,322.1 1668.7,357.8 1648.1,393.5 	
		"/>
	<polygon opacity="0.7" fill="#86C2B3" points="1771.7,393.5 1813,393.5 1792.4,357.8 1771.7,322.1 1751.1,357.8 1730.5,393.5 	"/>
	<polygon opacity="0.7" fill="#86C2B3" points="1854.2,393.5 1895.4,393.5 1874.8,357.8 1854.2,322.1 1833.6,357.8 1813,393.5 	"/>
	<polygon opacity="0.7" fill="#86C2B3" points="1936.6,393.5 1977.8,393.5 1957.2,357.8 1936.6,322.1 1916,357.8 1895.4,393.5 	"/>
	<polygon opacity="0.7" fill="#86C2B3" points="2019.1,393.5 2060.3,393.5 2039.7,357.8 2019.1,322.1 1998.5,357.8 1977.8,393.5 	
		"/>
	<polygon opacity="0.7" fill="#86C2B3" points="2101.5,393.5 2142.7,393.5 2122.1,357.8 2101.5,322.1 2080.9,357.8 2060.3,393.5 	
		"/>
	<polygon opacity="0.7" fill="#86C2B3" points="2184,393.5 2225.2,393.5 2204.6,357.8 2184,322.1 2163.3,357.8 2142.7,393.5 	"/>
	<polygon opacity="0.7" fill="#86C2B3" points="2266.4,393.5 2307.6,393.5 2287,357.8 2266.4,322.1 2245.8,357.8 2225.2,393.5 	"/>
	<polygon opacity="0.7" fill="#86C2B3" points="2348.8,393.5 2390.1,393.5 2369.4,357.8 2348.8,322.1 2328.2,357.8 2307.6,393.5 	
		"/>
	<polygon opacity="0.7" fill="#86C2B3" points="2431.3,393.5 2472.5,393.5 2451.9,357.8 2431.3,322.1 2410.7,357.8 2390.1,393.5 	
		"/>
	<polygon opacity="0.7" fill="#86C2B3" points="2513.7,393.5 2554.9,393.5 2534.3,357.8 2513.7,322.1 2493.1,357.8 2472.5,393.5 	
		"/>
	<polygon opacity="0.7" fill="#86C2B3" points="2596.2,393.5 2637.4,393.5 2616.8,357.8 2596.2,322.1 2575.5,357.8 2554.9,393.5 	
		"/>
	<polygon opacity="0.6" fill="#86C2B3" points="1318.3,322.1 1359.5,322.1 1338.9,286.4 1318.3,250.7 1297.7,286.4 1277.1,322.1 	
		"/>
	<polygon opacity="0.6" fill="#86C2B3" points="1400.8,322.1 1442,322.1 1421.4,286.4 1400.8,250.7 1380.1,286.4 1359.5,322.1 	"/>
	<polygon opacity="0.6" fill="#86C2B3" points="1483.2,322.1 1524.4,322.1 1503.8,286.4 1483.2,250.7 1462.6,286.4 1442,322.1 	"/>
	<polygon opacity="0.6" fill="#86C2B3" points="1565.6,322.1 1606.9,322.1 1586.2,286.4 1565.6,250.7 1545,286.4 1524.4,322.1 	"/>
	<polygon opacity="0.6" fill="#86C2B3" points="1648.1,322.1 1689.3,322.1 1668.7,286.4 1648.1,250.7 1627.5,286.4 1606.9,322.1 	
		"/>
	<polygon opacity="0.6" fill="#86C2B3" points="1730.5,322.1 1771.7,322.1 1751.1,286.4 1730.5,250.7 1709.9,286.4 1689.3,322.1 	
		"/>
	<polygon opacity="0.6" fill="#86C2B3" points="1813,322.1 1854.2,322.1 1833.6,286.4 1813,250.7 1792.4,286.4 1771.7,322.1 	"/>
	<polygon opacity="0.6" fill="#86C2B3" points="1895.4,322.1 1936.6,322.1 1916,286.4 1895.4,250.7 1874.8,286.4 1854.2,322.1 	"/>
	<polygon opacity="0.6" fill="#86C2B3" points="1977.8,322.1 2019.1,322.1 1998.5,286.4 1977.8,250.7 1957.2,286.4 1936.6,322.1 	
		"/>
	<polygon opacity="0.6" fill="#86C2B3" points="2060.3,322.1 2101.5,322.1 2080.9,286.4 2060.3,250.7 2039.7,286.4 2019.1,322.1 	
		"/>
	<polygon opacity="0.6" fill="#86C2B3" points="2142.7,322.1 2184,322.1 2163.3,286.4 2142.7,250.7 2122.1,286.4 2101.5,322.1 	"/>
	<polygon opacity="0.6" fill="#86C2B3" points="2225.2,322.1 2266.4,322.1 2245.8,286.4 2225.2,250.7 2204.6,286.4 2184,322.1 	"/>
	<polygon opacity="0.6" fill="#86C2B3" points="2307.6,322.1 2348.8,322.1 2328.2,286.4 2307.6,250.7 2287,286.4 2266.4,322.1 	"/>
	<polygon opacity="0.6" fill="#86C2B3" points="2390.1,322.1 2431.3,322.1 2410.7,286.4 2390.1,250.7 2369.4,286.4 2348.8,322.1 	
		"/>
	<polygon opacity="0.6" fill="#86C2B3" points="2472.5,322.1 2513.7,322.1 2493.1,286.4 2472.5,250.7 2451.9,286.4 2431.3,322.1 	
		"/>
	<polygon opacity="0.6" fill="#86C2B3" points="2554.9,322.1 2596.2,322.1 2575.5,286.4 2554.9,250.7 2534.3,286.4 2513.7,322.1 	
		"/>
	<polygon opacity="0.5" fill="#86C2B3" points="1359.5,250.7 1400.8,250.7 1380.1,215 1359.5,179.3 1338.9,215 1318.3,250.7 	"/>
	<polygon opacity="0.5" fill="#86C2B3" points="1277.1,250.7 1318.3,250.7 1297.7,215 1277.1,179.3 1256.5,215 1235.9,250.7 	"/>
	<polygon opacity="0.5" fill="#86C2B3" points="1442,250.7 1483.2,250.7 1462.6,215 1442,179.3 1421.4,215 1400.8,250.7 	"/>
	<polygon opacity="0.5" fill="#86C2B3" points="1524.4,250.7 1565.6,250.7 1545,215 1524.4,179.3 1503.8,215 1483.2,250.7 	"/>
	<polygon opacity="0.5" fill="#86C2B3" points="1606.9,250.7 1648.1,250.7 1627.5,215 1606.9,179.3 1586.2,215 1565.6,250.7 	"/>
	<polygon opacity="0.5" fill="#86C2B3" points="1689.3,250.7 1730.5,250.7 1709.9,215 1689.3,179.3 1668.7,215 1648.1,250.7 	"/>
	<polygon opacity="0.5" fill="#86C2B3" points="1771.7,250.7 1813,250.7 1792.4,215 1771.7,179.3 1751.1,215 1730.5,250.7 	"/>
	<polygon opacity="0.5" fill="#86C2B3" points="1854.2,250.7 1895.4,250.7 1874.8,215 1854.2,179.3 1833.6,215 1813,250.7 	"/>
	<polygon opacity="0.5" fill="#86C2B3" points="1936.6,250.7 1977.8,250.7 1957.2,215 1936.6,179.3 1916,215 1895.4,250.7 	"/>
	<polygon opacity="0.5" fill="#86C2B3" points="2019.1,250.7 2060.3,250.7 2039.7,215 2019.1,179.3 1998.5,215 1977.8,250.7 	"/>
	<polygon opacity="0.5" fill="#86C2B3" points="2101.5,250.7 2142.7,250.7 2122.1,215 2101.5,179.3 2080.9,215 2060.3,250.7 	"/>
	<polygon opacity="0.5" fill="#86C2B3" points="2184,250.7 2225.2,250.7 2204.6,215 2184,179.3 2163.3,215 2142.7,250.7 	"/>
	<polygon opacity="0.5" fill="#86C2B3" points="2266.4,250.7 2307.6,250.7 2287,215 2266.4,179.3 2245.8,215 2225.2,250.7 	"/>
	<polygon opacity="0.5" fill="#86C2B3" points="2348.8,250.7 2390.1,250.7 2369.4,215 2348.8,179.3 2328.2,215 2307.6,250.7 	"/>
	<polygon opacity="0.5" fill="#86C2B3" points="2431.3,250.7 2472.5,250.7 2451.9,215 2431.3,179.3 2410.7,215 2390.1,250.7 	"/>
	<polygon opacity="0.5" fill="#86C2B3" points="2513.7,250.7 2554.9,250.7 2534.3,215 2513.7,179.3 2493.1,215 2472.5,250.7 	"/>
	<polygon opacity="0.5" fill="#86C2B3" points="2596.2,250.7 2637.4,250.7 2616.8,215 2596.2,179.3 2575.5,215 2554.9,250.7 	"/>
	<polygon opacity="0.9" fill="#86C2B3" points="2678.6,535.3 2719.8,535.3 2699.2,499.6 2678.6,463.9 2658,499.6 2637.4,535.3 	"/>
	<polygon opacity="0.7" fill="#86C2B3" points="2678.6,393.5 2719.8,393.5 2699.2,357.8 2678.6,322.1 2658,357.8 2637.4,393.5 	"/>
	<polygon opacity="0.5" fill="#86C2B3" points="2678.6,250.7 2719.8,250.7 2699.2,215 2678.6,179.3 2658,215 2637.4,250.7 	"/>
	<polygon opacity="0.4" fill="#86C2B3" points="1318.3,179.3 1359.5,179.3 1338.9,143.6 1318.3,107.9 1297.7,143.6 1277.1,179.3 	
		"/>
	<polygon opacity="0.4" fill="#86C2B3" points="1400.8,179.3 1442,179.3 1421.4,143.6 1400.8,107.9 1380.1,143.6 1359.5,179.3 	"/>
	<polygon opacity="0.4" fill="#86C2B3" points="1483.2,179.3 1524.4,179.3 1503.8,143.6 1483.2,107.9 1462.6,143.6 1442,179.3 	"/>
	<polygon opacity="0.4" fill="#86C2B3" points="1565.6,179.3 1606.9,179.3 1586.2,143.6 1565.6,107.9 1545,143.6 1524.4,179.3 	"/>
	<polygon opacity="0.4" fill="#86C2B3" points="1648.1,179.3 1689.3,179.3 1668.7,143.6 1648.1,107.9 1627.5,143.6 1606.9,179.3 	
		"/>
	<polygon opacity="0.4" fill="#86C2B3" points="1730.5,179.3 1771.7,179.3 1751.1,143.6 1730.5,107.9 1709.9,143.6 1689.3,179.3 	
		"/>
	<polygon opacity="0.4" fill="#86C2B3" points="1813,179.3 1854.2,179.3 1833.6,143.6 1813,107.9 1792.4,143.6 1771.7,179.3 	"/>
	<polygon opacity="0.4" fill="#86C2B3" points="1895.4,179.3 1936.6,179.3 1916,143.6 1895.4,107.9 1874.8,143.6 1854.2,179.3 	"/>
	<polygon opacity="0.4" fill="#86C2B3" points="1977.8,179.3 2019.1,179.3 1998.5,143.6 1977.8,107.9 1957.2,143.6 1936.6,179.3 	
		"/>
	<polygon opacity="0.4" fill="#86C2B3" points="2060.3,179.3 2101.5,179.3 2080.9,143.6 2060.3,107.9 2039.7,143.6 2019.1,179.3 	
		"/>
	<polygon opacity="0.4" fill="#86C2B3" points="2142.7,179.3 2184,179.3 2163.3,143.6 2142.7,107.9 2122.1,143.6 2101.5,179.3 	"/>
	<polygon opacity="0.4" fill="#86C2B3" points="2225.2,179.3 2266.4,179.3 2245.8,143.6 2225.2,107.9 2204.6,143.6 2184,179.3 	"/>
	<polygon opacity="0.4" fill="#86C2B3" points="2307.6,179.3 2348.8,179.3 2328.2,143.6 2307.6,107.9 2287,143.6 2266.4,179.3 	"/>
	<polygon opacity="0.4" fill="#86C2B3" points="2390.1,179.3 2431.3,179.3 2410.7,143.6 2390.1,107.9 2369.4,143.6 2348.8,179.3 	
		"/>
	<polygon opacity="0.4" fill="#86C2B3" points="2472.5,179.3 2513.7,179.3 2493.1,143.6 2472.5,107.9 2451.9,143.6 2431.3,179.3 	
		"/>
	<polygon opacity="0.4" fill="#86C2B3" points="2554.9,179.3 2596.2,179.3 2575.5,143.6 2554.9,107.9 2534.3,143.6 2513.7,179.3 	
		"/>
	<polygon fill="#86C2B3" points="2637.4,606.7 2678.6,606.7 2658,571 2637.4,535.3 2616.8,571 2596.2,606.7 	"/>
	<polygon opacity="0.8" fill="#86C2B3" points="2637.4,464.9 2678.6,464.9 2658,429.2 2637.4,393.5 2616.8,429.2 2596.2,464.9 	"/>
	<polygon opacity="0.6" fill="#86C2B3" points="2637.4,322.1 2678.6,322.1 2658,286.4 2637.4,250.7 2616.8,286.4 2596.2,322.1 	"/>
	<polygon opacity="0.4" fill="#86C2B3" points="2637.4,179.3 2678.6,179.3 2658,143.6 2637.4,107.9 2616.8,143.6 2596.2,179.3 	"/>
	<polygon opacity="0.3" fill="#86C2B3" points="1359.5,107.9 1400.8,107.9 1380.1,72.2 1359.5,36.5 1338.9,72.2 1318.3,107.9 	"/>
	<polygon opacity="0.3" fill="#86C2B3" points="1442,107.9 1483.2,107.9 1462.6,72.2 1442,36.5 1421.4,72.2 1400.8,107.9 	"/>
	<polygon opacity="0.3" fill="#86C2B3" points="1524.4,107.9 1565.6,107.9 1545,72.2 1524.4,36.5 1503.8,72.2 1483.2,107.9 	"/>
	<polygon opacity="0.3" fill="#86C2B3" points="1606.9,107.9 1648.1,107.9 1627.5,72.2 1606.9,36.5 1586.2,72.2 1565.6,107.9 	"/>
	<polygon opacity="0.3" fill="#86C2B3" points="1689.3,107.9 1730.5,107.9 1709.9,72.2 1689.3,36.5 1668.7,72.2 1648.1,107.9 	"/>
	<polygon opacity="0.3" fill="#86C2B3" points="1771.7,107.9 1813,107.9 1792.4,72.2 1771.7,36.5 1751.1,72.2 1730.5,107.9 	"/>
	<polygon opacity="0.3" fill="#86C2B3" points="1854.2,107.9 1895.4,107.9 1874.8,72.2 1854.2,36.5 1833.6,72.2 1813,107.9 	"/>
	<polygon opacity="0.3" fill="#86C2B3" points="1936.6,107.9 1977.8,107.9 1957.2,72.2 1936.6,36.5 1916,72.2 1895.4,107.9 	"/>
	<polygon opacity="0.3" fill="#86C2B3" points="2019.1,107.9 2060.3,107.9 2039.7,72.2 2019.1,36.5 1998.5,72.2 1977.8,107.9 	"/>
	<polygon opacity="0.3" fill="#86C2B3" points="2101.5,107.9 2142.7,107.9 2122.1,72.2 2101.5,36.5 2080.9,72.2 2060.3,107.9 	"/>
	<polygon opacity="0.3" fill="#86C2B3" points="2184,107.9 2225.2,107.9 2204.6,72.2 2184,36.5 2163.3,72.2 2142.7,107.9 	"/>
	<polygon opacity="0.3" fill="#86C2B3" points="2266.4,107.9 2307.6,107.9 2287,72.2 2266.4,36.5 2245.8,72.2 2225.2,107.9 	"/>
	<polygon opacity="0.3" fill="#86C2B3" points="2348.8,107.9 2390.1,107.9 2369.4,72.2 2348.8,36.5 2328.2,72.2 2307.6,107.9 	"/>
	<polygon opacity="0.3" fill="#86C2B3" points="2431.3,107.9 2472.5,107.9 2451.9,72.2 2431.3,36.5 2410.7,72.2 2390.1,107.9 	"/>
	<polygon opacity="0.3" fill="#86C2B3" points="2513.7,107.9 2554.9,107.9 2534.3,72.2 2513.7,36.5 2493.1,72.2 2472.5,107.9 	"/>
	<polygon opacity="0.3" fill="#86C2B3" points="2596.2,107.9 2637.4,107.9 2616.8,72.2 2596.2,36.5 2575.5,72.2 2554.9,107.9 	"/>
	<polygon opacity="0.2" fill="#86C2B3" points="1400.8,36.5 1442,36.5 1421.4,0.8 1400.8,-34.9 1380.1,0.8 1359.5,36.5 	"/>
	<polygon opacity="0.2" fill="#86C2B3" points="1318.3,36.5 1359.5,36.5 1338.9,0.8 1318.3,-34.9 1297.7,0.8 1277.1,36.5 	"/>
	<polygon opacity="0.2" fill="#86C2B3" points="1483.2,36.5 1524.4,36.5 1503.8,0.8 1483.2,-34.9 1462.6,0.8 1442,36.5 	"/>
	<polygon opacity="0.2" fill="#86C2B3" points="1565.6,36.5 1606.9,36.5 1586.2,0.8 1565.6,-34.9 1545,0.8 1524.4,36.5 	"/>
	<polygon opacity="0.2" fill="#86C2B3" points="1648.1,36.5 1689.3,36.5 1668.7,0.8 1648.1,-34.9 1627.5,0.8 1606.9,36.5 	"/>
	<polygon opacity="0.2" fill="#86C2B3" points="1730.5,36.5 1771.7,36.5 1751.1,0.8 1730.5,-34.9 1709.9,0.8 1689.3,36.5 	"/>
	<polygon opacity="0.2" fill="#86C2B3" points="1813,36.5 1854.2,36.5 1833.6,0.8 1813,-34.9 1792.4,0.8 1771.7,36.5 	"/>
	<polygon opacity="0.2" fill="#86C2B3" points="1895.4,36.5 1936.6,36.5 1916,0.8 1895.4,-34.9 1874.8,0.8 1854.2,36.5 	"/>
	<polygon opacity="0.2" fill="#86C2B3" points="1977.8,36.5 2019.1,36.5 1998.5,0.8 1977.8,-34.9 1957.2,0.8 1936.6,36.5 	"/>
	<polygon opacity="0.2" fill="#86C2B3" points="2060.3,36.5 2101.5,36.5 2080.9,0.8 2060.3,-34.9 2039.7,0.8 2019.1,36.5 	"/>
	<polygon opacity="0.2" fill="#86C2B3" points="2142.7,36.5 2184,36.5 2163.3,0.8 2142.7,-34.9 2122.1,0.8 2101.5,36.5 	"/>
	<polygon opacity="0.2" fill="#86C2B3" points="2225.2,36.5 2266.4,36.5 2245.8,0.8 2225.2,-34.9 2204.6,0.8 2184,36.5 	"/>
	<polygon opacity="0.2" fill="#86C2B3" points="2307.6,36.5 2348.8,36.5 2328.2,0.8 2307.6,-34.9 2287,0.8 2266.4,36.5 	"/>
	<polygon opacity="0.2" fill="#86C2B3" points="2390.1,36.5 2431.3,36.5 2410.7,0.8 2390.1,-34.9 2369.4,0.8 2348.8,36.5 	"/>
	<polygon opacity="0.2" fill="#86C2B3" points="2472.5,36.5 2513.7,36.5 2493.1,0.8 2472.5,-34.9 2451.9,0.8 2431.3,36.5 	"/>
	<polygon opacity="0.2" fill="#86C2B3" points="2554.9,36.5 2596.2,36.5 2575.5,0.8 2554.9,-34.9 2534.3,0.8 2513.7,36.5 	"/>
	<polygon opacity="0.2" fill="#86C2B3" points="2637.4,36.5 2678.6,36.5 2658,0.8 2637.4,-34.9 2616.8,0.8 2596.2,36.5 	"/>
	<polygon opacity="0.3" fill="#86C2B3" points="1277.8,107.9 1319.1,107.9 1298.5,72.2 1277.8,36.5 1257.2,72.2 1236.6,107.9 	"/>
	<polygon opacity="0.3" fill="#86C2B3" points="2678.6,107.9 2719.8,107.9 2699.2,72.2 2678.6,36.5 2658,72.2 2637.4,107.9 	"/>
</g>
<polygon opacity="0.98" fill="#FFFFFF" points="2.9,5 5.2,5 4.1,3 2.9,1.1 1.8,3 0.7,5 "/>
<polygon opacity="0.15" fill="#8DD1C0" points="2.9,4 5.2,4 4,2 2.9,0.1 1.8,2 0.7,4 "/>
</svg>
