<?xml version="1.0" encoding="utf-8"?>
<!-- Generator: Adobe Illustrator 18.1.0, SVG Export Plug-In . SVG Version: 6.00 Build 0)  -->
<svg version="1.1" id="Layer_1" xmlns="http://www.w3.org/2000/svg" xmlns:xlink="http://www.w3.org/1999/xlink" x="0px" y="0px"
	 viewBox="0 0 647.6 1224" enable-background="new 0 0 647.6 1224" xml:space="preserve">
<rect x="-0.6" fill="#DDE3E8" width="647.6" height="1224"/>
<g>
	<path fill="#D7B7A9" d="M523.9,597.8c-10.5,0.6-11.5-10.6-11.8-16.1l-6.4-110.1c-1.7-38.6-2.1-45.7-28.3-45.4v372.1h-45.3V688.1
		c0-47.3,0-47.3-51.4-47.3H260.9c-51.4,0-49.2,0-49.2,47.3v110.3h-45.5V426.2c-25.9-0.2-26.2,7-27.9,45.4l-6.4,110.1
		c-0.3,5.5-1.3,16.7-11.8,16.1c-25.4-2.1-31.1-24.4-29.6-50l6.4-110.2c1.5-26,23.9-45.9,50-44.4l19.4,1.1V246.8
		c0-86,69.7-155.6,155.6-155.6c86,0,155.6,69.7,155.6,155.6v147.5l19.8-1.1c26.1-1.5,48.4,18.4,50,44.4l6.4,110.2
		C555,573.4,549.4,595.7,523.9,597.8z"/>
	<path fill="#0E0542" d="M477.8,798.4h-45.3V688.1c0-47.3,0-47.3-51.4-47.3H261.3c-51.4,0-49.2,0-49.2,47.3v110.3h-45.5V522.6h311.2
		V798.4z"/>
	<path fill="#002A41" d="M547.4,438.1l-42.7,11.7c-3.8-16.7-1.9-22.7-27-22.9v104H166.4V427c-24.6,0.2-22.8,6.1-26.6,22.8
		l-42.8-11.7c1.5-26,23.9-45.9,50-44.4l19.4,1.1v-17.1c0.7,0.5,50.5,22.1,87.3,27.2c21,3,44,4.6,68.3,4.6c24.5,0,47.7-1.7,68.8-4.6
		c36.6-5.1,84.6-25.6,84.6-25.6c0.8-0.5,1.5,14.8,2.2,14.3v1.3l19.8-1.1C523.5,392.2,545.8,412.1,547.4,438.1z"/>
	<path fill="#5B3C18" d="M252.8,403.9v207.3h-86.4V427.1c-24.6,0.2-22.5,5.6-26.2,22.2l-5.7,99.6l-44.2-4.6L97,437.6
		c1.5-26,24.2-45.9,50.3-44.4l19.1,1.1v-38.7L252.8,403.9z"/>
	<polygon fill="#764D21" points="166.3,355.5 183.6,397.2 252.8,403.9 252.8,403.9 	"/>
	<path fill="#5B3C18" d="M392,403.9v207.3h85.6l0.6-184.7c24.6,0.2,22.8,6.1,26.6,22.8l6,95l42.2-3.9l-5.4-102.7
		c-1.5-26-23.9-45.9-50-44.4l-19.9,1.1v-38.6L392,403.9z"/>
	<polygon fill="#764D21" points="477.6,355.8 460.8,397 392,403.9 392,403.9 	"/>
	<rect x="166.6" y="766.9" width="45" height="31.5"/>
	<rect x="432.8" y="766.9" width="45" height="31.5"/>
	<path d="M508.6,534.4l3.3,47.3c0.3,5.5,1.3,16.8,11.8,16.1c35.9-2.3,33.9-41.6,32.4-67.2L508.6,534.4z"/>
	<path d="M135.1,534.4l-3.3,47.3c-0.3,5.5-1.3,16.8-11.8,16.1c-35.9-2.3-33.9-41.6-32.4-67.2L135.1,534.4z"/>
	<path fill="none" d="M166.2,306.8v-26.4 M477.4,308.5v-30.8"/>
	<path fill="#F2E4D5" d="M321.8,91.2c-86,0-155.6,69.7-155.6,155.6v60C180.5,363.4,244.8,406,322,406c76.4,0,140.2-41.8,155.4-97.6
		v-61.7C477.4,160.8,407.7,91.2,321.8,91.2z"/>
	<path fill="#A9A3A3" d="M336.8,112.3c0,2.7-2.2,4.9-4.9,4.9h-19.3c-2.7,0-4.9-2.2-4.9-4.9V93c0-2.7,2.2-4.9,4.9-4.9h19.3
		c2.7,0,4.9,2.2,4.9,4.9V112.3z"/>
	<path fill="#A9A3A3" d="M203.4,178.9c2.5,1,3.7,3.9,2.7,6.4l-7.4,17.8c-1,2.5-3.9,3.7-6.4,2.7l-17.8-7.4c-2.5-1-3.7-3.9-2.7-6.4
		l7.4-17.8c1-2.5,3.9-3.7,6.4-2.7L203.4,178.9z"/>
	<path fill="#A9A3A3" d="M439.7,178.9c-2.5,1-3.7,3.9-2.7,6.4l7.4,17.8c1,2.5,3.9,3.7,6.4,2.7l17.8-7.4c2.5-1,3.7-3.9,2.7-6.4
		l-7.4-17.8c-1-2.5-3.9-3.7-6.4-2.7L439.7,178.9z"/>
	<path fill="#464547" d="M232.9,230.6c0,11,12.5,19.9,28,19.9c15.5,0,28-8.9,28-19.9c0-11-12.5-19.9-28-19.9
		C245.4,210.7,232.9,219.6,232.9,230.6z"/>
	<path fill="#464547" d="M353.1,230.6c0,11,12.5,19.9,28,19.9c15.5,0,28-8.9,28-19.9c0-11-12.5-19.9-28-19.9
		C365.6,210.7,353.1,219.6,353.1,230.6z"/>
	<path fill="#464547" d="M309.8,289.7c0,4.8,5.5,4.8,12.2,4.8c6.8,0,12.2,0,12.2-4.8c0-4.8-5.5-12.7-12.2-12.7
		C315.2,277.1,309.8,284.9,309.8,289.7z"/>
	<polygon opacity="0.8" fill="#D82122" points="266.1,195.3 376.7,195.3 322.2,216 	"/>
	<polygon opacity="0.8" fill="#D82122" points="266.1,282.4 212.9,324.8 227.2,332.7 	"/>
	<polygon opacity="0.8" fill="#D82122" points="376.7,282.4 429.9,324.8 415.6,332.7 	"/>
	<circle fill="#464547" cx="296.9" cy="324.5" r="8"/>
	<circle fill="#464547" cx="347.7" cy="324.5" r="8"/>
	<circle fill="#464547" cx="296.9" cy="164.9" r="8"/>
	<circle fill="#464547" cx="258" cy="164.9" r="8"/>
	<circle fill="#464547" cx="347.7" cy="164.9" r="8"/>
	<circle fill="#464547" cx="384.8" cy="164.9" r="8"/>
	<circle fill="#464547" cx="296.9" cy="359.9" r="8"/>
	<circle fill="#464547" cx="347.7" cy="359.9" r="8"/>
</g>
<g>
	<g>
		
			<text transform="matrix(1 0 0 1 93.9386 961.4258)" fill="#8F1316" font-family="'ITCFranklinGothicStd-BkXCp'" font-size="88.5407">30 DAYS OF SCREAMS</text>
	</g>
	<g>
		
			<text transform="matrix(1 0 0 1 93.9386 1049.9668)" fill="#8F1316" font-family="'ITCFranklinGothicStd-BkXCp'" font-size="63.7493">DAY 2: FRIDAY THE THIRTEENTH</text>
	</g>
	<g>
		
			<text transform="matrix(1 0 0 1 93.9386 1120.4551)" fill="#8F1316" font-family="'ITCFranklinGothicStd-BkXCp'" font-size="40.5516">OCTOBER 2 - THE MAYFAIR - 1074 BANK STREET </text>
	</g>
	<line fill="none" stroke="#8F1316" stroke-width="6" stroke-miterlimit="10" x1="93.9" y1="983.9" x2="552.1" y2="983.9"/>
	<line fill="none" stroke="#8F1316" stroke-width="6" stroke-miterlimit="10" x1="93.9" y1="1071.6" x2="552.1" y2="1071.6"/>
</g>
</svg>
