<?xml version="1.0" encoding="utf-8"?>
<!-- Generator: Adobe Illustrator 18.1.0, SVG Export Plug-In . SVG Version: 6.00 Build 0)  -->
<svg version="1.1" id="Layer_1" xmlns="http://www.w3.org/2000/svg" xmlns:xlink="http://www.w3.org/1999/xlink" x="0px" y="0px"
	 viewBox="0 0 647.6 1224" enable-background="new 0 0 647.6 1224" xml:space="preserve">
<rect x="-0.5" y="-1" fill="#DDE3E8" width="647.6" height="1224"/>
<g>
	<path fill="#E8C0B3" d="M521.4,601.1c-10.3,0.6-11.2-10.3-11.5-15.7l-6.2-107.5c-1.7-37.7-2-44.6-27.7-44.3V797h-44.2V689.2
		c0-46.2,0-46.2-50.2-46.2h-117c-50.2,0-48.1,0-48.1,46.2V797H172V433.5c-25.3-0.2-25.6,6.8-27.2,44.4l-6.3,107.5
		c-0.3,5.4-1.3,16.3-11.5,15.7c-24.9-2-30.4-23.8-28.9-48.9l6.2-107.6c1.5-25.4,23.3-44.9,48.8-43.4l18.9,1.1V258.3
		c0-83.9,68-152,152-152c84,0,152,68,152,152v144.1l19.3-1.1c25.5-1.5,47.3,18,48.8,43.4l6.3,107.6
		C551.8,577.3,546.3,599,521.4,601.1z"/>
	<path fill="#704C39" d="M513.3,295.2c0,25.2-22.3,39.8-37.3,44.1l-0.2-96.3c0,0,0,0,0-0.1c0-0.1,0-0.2,0-0.2
		c-2-8.9-4.5-16.9-7.5-24.2c-17.5-43.8-47.9-59.8-47.9-59.8c-37.2-15.5-61.3-6.8-72.1-1.1c-25,13.1-53.9,0.3-54.8,0.2
		c-32.7-16.8-60.6-0.2-60.6-0.2c-30.2,15.5-45.6,41.4-53.3,60.9c-5,12.6-6.7,22.6-7.2,25.5c0,0,0,0,0,0c0.2,40,0.5,96.2-0.2,96
		c-18.2-6-40.5-19.7-40.5-44.9c0-11.6,4.5-19.7,11.7-30.3c0,0,14.5-22,19-31.2c6.8-13.7,15.7-47.4,15.7-47.5
		C190,137.2,224.4,75.8,322.8,77.5c96.7,1.7,132.7,60.6,145.9,108c0,0,1.1,4.2,1.7,6.2c14,51.6,31.3,72.9,31.4,73.1
		C511,277.7,513.3,283.5,513.3,295.2z"/>
	<path fill="#253679" d="M549.3,533.4l-42.1,4.8l-4.9-83.1c-3.7-16.3-1.8-22.2-26.2-22.3l0.1,98.1l-304-0.3l-0.1-97.7
		c-24,0.2-22.3,6-25.9,22.3l-4.9,83.1l-42.4-4.8l1-13.3l4.5-76.5c1.5-25.4,23.3-44.9,48.8-43.4l18.9,1.1v-3.7l99.8,12.7l39.8-19.8
		l12.7,19.2l11.7-19.2l40.1,19.8l96.1-13.6l1.1,5.1l21.8-1.6c25.5-1.5,47.3,18,48.8,43.4L549.3,533.4z"/>
	<polygon fill="#941C1F" points="141.3,538.2 140.3,553 98.1,547.8 98.9,533.5 	"/>
	<polygon fill="#941C1F" points="507.2,538.2 507.8,551.2 550.4,546.5 549.3,533.4 	"/>
	<path fill="none" stroke="#704C39" stroke-width="4" stroke-miterlimit="10" d="M276.3,146.1c0,0-60.1,23.1-34.5,85.3"/>
	<path fill="#255CA9" d="M476.4,796.2h-44.2V688.4c0-46.2,0-46.2-50.2-46.2H265c-50.2,0-48.1,0-48.1,46.2v107.7h-44.4V526.8h304
		V796.2z"/>
	<rect x="172.5" y="763.4" fill="#CB9028" width="44.4" height="32.8"/>
	<rect x="432" y="763.4" fill="#CB9028" width="44.4" height="32.8"/>
	<line opacity="0.8" fill="none" stroke="#D05049" stroke-miterlimit="10" x1="298.7" y1="397.1" x2="298.7" y2="526.8"/>
	<line opacity="0.8" fill="none" stroke="#D05049" stroke-miterlimit="10" x1="352.5" y1="397.1" x2="352.5" y2="526.8"/>
	
		<line opacity="0.7" fill="none" stroke="#FFFFFF" stroke-width="0.75" stroke-miterlimit="10" x1="379.5" y1="416.2" x2="379.5" y2="526.8"/>
	
		<line opacity="0.7" fill="none" stroke="#FFFFFF" stroke-width="0.75" stroke-miterlimit="10" x1="271.7" y1="416.2" x2="271.7" y2="526.8"/>
	<line opacity="0.8" fill="none" stroke="#D05049" stroke-miterlimit="10" x1="256.2" y1="439.1" x2="392.2" y2="439.1"/>
	<line opacity="0.8" fill="none" stroke="#D05049" stroke-miterlimit="10" x1="256.2" y1="493" x2="392.2" y2="493"/>
	
		<line opacity="0.7" fill="none" stroke="#FFFFFF" stroke-width="0.75" stroke-miterlimit="10" x1="256.2" y1="466.1" x2="392.2" y2="466.1"/>
	
		<line opacity="0.7" fill="none" stroke="#FFFFFF" stroke-width="0.75" stroke-miterlimit="10" x1="256.2" y1="412.2" x2="392.2" y2="412.2"/>
	
		<line opacity="0.7" fill="none" stroke="#FFFFFF" stroke-width="0.75" stroke-miterlimit="10" x1="256.2" y1="519.9" x2="392.2" y2="519.9"/>
	<line fill="none" stroke="#1B2864" stroke-miterlimit="10" x1="324.4" y1="409.8" x2="324.4" y2="526.8"/>
	<polygon fill="#1B2864" points="475.8,363.7 475.8,372.6 360.7,427.6 336.1,390.6 	"/>
	<polygon fill="#1B2864" points="171.8,363.6 171.8,368.9 287.3,427.6 311.8,390.6 	"/>
	<path fill="#791315" d="M256.2,410.8v137h-84.4V433.4c-24,0.2-22,5.4-25.6,21.7l-4.9,83.1l-42.5-3.8l5.3-90.8
		c1.5-25.4,23.6-44.9,49.1-43.4l18.6,1.1v-37.8L256.2,410.8z"/>
	<polygon fill="#941C1F" points="171.8,363.5 191.7,386.2 188.7,404.2 256.2,410.8 256.2,410.8 	"/>
	<path fill="#791315" d="M392.2,410.8v137h83.6l0.5-115c24,0.2,22.3,6,25.9,22.3l4.9,83.1l42.1-4.8l-5.2-89.7
		c-1.5-25.4-23.3-44.9-48.8-43.4l-19.5,1.1v-37.7L392.2,410.8z"/>
	<polygon fill="#941C1F" points="475.8,363.7 455.7,385.8 459.4,404 392.2,410.8 392.2,410.8 	"/>
</g>
<g>
	<g>
		
			<text transform="matrix(1 0 0 1 94.0129 960.4258)" fill="#8F1316" font-family="'ITCFranklinGothicStd-BkXCp'" font-size="88.5407">30 DAYS OF SCREAMS</text>
	</g>
	<g>
		
			<text transform="matrix(1 0 0 1 94.0129 1048.9668)" fill="#8F1316" font-family="'ITCFranklinGothicStd-BkXCp'" font-size="63.7493" letter-spacing="1">DAY 3: KING’S THE SHINING</text>
	</g>
	<g>
		
			<text transform="matrix(1 0 0 1 94.0129 1119.4551)" fill="#8F1316" font-family="'ITCFranklinGothicStd-BkXCp'" font-size="40.5516">OCTOBER 3 - THE MAYFAIR - 1074 BANK STREET </text>
	</g>
	<line fill="none" stroke="#8F1316" stroke-width="6" stroke-miterlimit="10" x1="94" y1="982.9" x2="552.2" y2="982.9"/>
	<line fill="none" stroke="#8F1316" stroke-width="6" stroke-miterlimit="10" x1="94" y1="1070.6" x2="552.2" y2="1070.6"/>
</g>
</svg>
