<?xml version="1.0" encoding="utf-8"?>
<!-- Generator: Adobe Illustrator 18.1.0, SVG Export Plug-In . SVG Version: 6.00 Build 0)  -->
<svg version="1.1" id="Layer_1" xmlns="http://www.w3.org/2000/svg" xmlns:xlink="http://www.w3.org/1999/xlink" x="0px" y="0px"
	 viewBox="0 0 647.6 1224" enable-background="new 0 0 647.6 1224" xml:space="preserve">
<rect x="0" fill="#DDE3E8" width="647.6" height="1224"/>
<g>
	<path fill="#EDCABD" d="M523.7,599.8c-10.4,0.6-11.3-10.4-11.7-15.9l-6.3-108.8c-1.7-38.2-2-45.1-28-44.9V798H433V689
		c0-46.7,0-46.7-50.8-46.7H263.8c-50.8,0-48.7,0-48.7,46.7v109h-44.9V430.2c-25.6-0.2-25.9,6.9-27.6,44.9l-6.3,108.8
		c-0.3,5.5-1.3,16.5-11.6,15.9c-25.1-2.1-30.8-24.1-29.3-49.4l6.3-108.9c1.5-25.7,23.6-45.4,49.4-43.9l19.2,1.1V253
		c0-85,68.8-153.8,153.8-153.8c85,0,143.5,69.2,153.8,164.3v135.3l19.5-1.1c25.8-1.5,47.8,18.2,49.4,43.9l6.3,108.9
		C554.5,575.7,548.9,597.8,523.7,599.8z"/>
	<g>
		<path fill="#704C39" d="M477.7,265.6c-13.7-64.7-56.5-87.1-56.5-87.1c-37.6-15.7-62.1-6.8-73-1.1c-25.3,13.3-54.5,0.3-55.5,0.1
			c-33.1-17-61.3-0.1-61.3-0.1c-54,27.9-61.3,88.2-61.3,88.2S157.6,93.3,322.4,96.3C486.9,99.2,477.7,265.6,477.7,265.6z"/>
	</g>
	<path fill="#DC6231" d="M551.6,532.1l-42.6,4.9l-0.8-12.9l-4.2-71.2c-3.7-16.5-1.9-22.4-26.5-22.6v95.3h0.1l0.1,242.1H433
		l-0.1-78.5c0-46.7,0-46.7-50.8-46.7H263.7c-50.8,0-48.7,0-48.7,46.7l0.1,78.5h-45.5l0.5-234.6H170V430.3
		c-24.3,0.2-22.5,6.1-26.2,22.5l-4.2,71.2l-0.7,12.9l-42.6-4.9l0.8-13.4h0l4.5-77.4c1.5-25.7,23.6-45.4,49.4-43.9l19.2,1.1l0-3.7
		l82.2,23.5l18.8,4.9l32.8-35.7l19.9,30l20-30l32.8,35.7l19.2-5l81.8-25.6v5.9l19.4-1.1c25.8-1.5,47.8,18.2,49.3,43.9l4.5,77.4
		L551.6,532.1z"/>
	<polygon fill="#CE5C2D" points="477.6,360.3 477.6,396.8 372.4,425 343.7,387.5 	"/>
	<polygon fill="#CE5C2D" points="170,360.3 170,396.8 275.1,425 303.8,387.5 	"/>
	<line fill="none" stroke="#CE5C2D" stroke-miterlimit="10" x1="323.9" y1="417.9" x2="323.9" y2="614.2"/>
	<line fill="none" stroke="#67686B" stroke-width="3" stroke-miterlimit="10" x1="322.4" y1="317.2" x2="322.4" y2="344.1"/>
	<line fill="none" stroke="#67686B" stroke-width="3" stroke-miterlimit="10" x1="330.9" y1="313" x2="338.4" y2="344.1"/>
	<line fill="none" stroke="#67686B" stroke-width="3" stroke-miterlimit="10" x1="315.1" y1="313" x2="307.5" y2="344.1"/>
	<path fill="#C7BA98" d="M476.8,257c-15.3,19.7-43,32.9-74.6,32.9c-24.8,0-47.2-8.1-63.1-21.2c-1.5-1.2-3-2.5-4.3-3.9
		c-3.7-2.6-7.9-4.1-12.3-4.1c-3.8,0-7.4,1.1-10.7,3.1c0,0,0,0-0.1,0.1c-0.5,0.3-1,0.6-1.4,1c-0.9,0.7-1.7,1.5-2.7,2.2
		c-18.3,14.1-47.5,22.9-64.9,22.9c-29.9,0-56.2-11.8-71.9-29.7c-0.1,1.8-0.2,3.5-0.2,5.3c0,65.6,68.6,118.9,153.4,118.9
		c84.7,0,153.4-53.2,153.4-118.9C477.2,262.7,477.1,259.9,476.8,257z M335.2,344.1h-25.6c-7.4,0-13.5-6-13.5-13.5
		c0-3.7,1.5-7.1,3.9-9.6c2.5-2.4,5.8-3.9,9.5-3.9h25.6c7.4,0,13.5,6,13.5,13.5C348.7,338.1,342.7,344.1,335.2,344.1z"/>
	<rect x="169.6" y="767.6" fill="#4C3C36" width="45.5" height="30.4"/>
	<rect x="433" y="767.6" fill="#4C3C36" width="44.6" height="30.4"/>
</g>
<g>
	<g>
		
			<text transform="matrix(1 0 0 1 94.5449 961.4258)" fill="#8F1316" font-family="'ITCFranklinGothicStd-BkXCp'" font-size="88.5407">30 DAYS OF SCREAMS</text>
	</g>
	<g>
		
			<text transform="matrix(1 0 0 1 94.5449 1049.9668)" fill="#8F1316" font-family="'ITCFranklinGothicStd-BkXCp'" font-size="63.7493">DAY 1: SILENCE OF THE LAMBS</text>
	</g>
	<g>
		
			<text transform="matrix(1 0 0 1 94.5449 1120.4551)" fill="#8F1316" font-family="'ITCFranklinGothicStd-BkXCp'" font-size="40.5516">OCTOBER 1 - THE MAYFAIR - 1074 BANK STREET </text>
	</g>
	<line fill="none" stroke="#8F1316" stroke-width="6" stroke-miterlimit="10" x1="94.5" y1="983.9" x2="552.7" y2="983.9"/>
	<line fill="none" stroke="#8F1316" stroke-width="6" stroke-miterlimit="10" x1="94.5" y1="1071.6" x2="552.7" y2="1071.6"/>
</g>
</svg>
