<?xml version="1.0" encoding="utf-8"?>
<!-- Generator: Adobe Illustrator 18.1.0, SVG Export Plug-In . SVG Version: 6.00 Build 0)  -->
<svg version="1.1" id="Layer_1" xmlns="http://www.w3.org/2000/svg" xmlns:xlink="http://www.w3.org/1999/xlink" x="0px" y="0px"
	 viewBox="0 0 647.6 1224" enable-background="new 0 0 647.6 1224" xml:space="preserve">
<rect x="0.5" y="-0.8" fill="#DDE3E8" width="647.6" height="1224"/>
<g>
	<polygon fill="#85663B" points="120.4,582.4 100.1,617.1 100.1,668.8 105.6,619.3 126,588.6 	"/>
	<polygon fill="#85663B" points="125.8,599.3 109.6,645.2 116.3,700.1 115.7,646.9 135.5,604.4 	"/>
	<polygon fill="#85663B" points="139.2,612.8 130.3,660.7 145.4,713.8 136.6,661.3 149.5,616.3 	"/>
</g>
<path fill="#422F27" d="M459.8,230.4C459.8,230.4,459.8,229.8,459.8,230.4c0,26.9-59.8,48.7-133.6,48.7
	c-73.8,0-133.6-21.8-133.6-48.7l31.6-76.9c14.6-50.8,74.6-63.1,102-63.1c28.3,0,90.6,13.6,102,63.1L459.8,230.4z"/>
<path fill="#382620" d="M531.1,240.8c0,36.6-91,66.2-203.3,66.2c-112.3,0-203.3-29.6-203.3-66.2c0-36.6,91-66.2,203.3-66.2
	C440.1,174.6,531.1,204.3,531.1,240.8z"/>
<path fill="#FABCA8" d="M505.6,618c-9.4,0.6-10.2-9.4-10.5-14.3l-5.7-98c-1.5-34.4-1.8-40.6-25.2-40.4v331.3h-40.3v-98.2
	c0-42.1,0-42.1-45.7-42.1H271.4c-45.7,0-43.8,0-43.8,42.1v98.2h-40.5V465.2c-23-0.1-23.3,6.2-24.8,40.4l-5.7,98
	c-0.3,4.9-1.2,14.9-10.5,14.3c-22.7-1.9-27.7-21.7-26.4-44.5l5.7-98.1c1.4-23.2,21.3-40.9,44.5-39.6l17.3,1V305.5c0-2,0-4,0.1-6
	v-0.1c0.2-3.8,0.5-7.5,1-11.1c0-0.1,0-0.2,0-0.4c2.5-19.3,8.8-37.3,18.4-53.3c33.8-9.1,75.8-14.4,121.2-14.4
	c43.2,0,83.2,4.8,116.1,13.1c4.4,7.3,8.2,14.9,11.3,23c5.8,15.3,9,31.9,9,49.2v131.3l17.6-1c23.2-1.3,43.1,16.4,44.5,39.6l5.7,98.1
	C533.3,596.3,528.3,616.1,505.6,618z"/>
<path fill="#333334" d="M464.2,761.5h-40.3v-63.1c0-42.1,0-42.1-45.7-42.1H271.4c-45.7,0-43.8,0-43.8,42.1v63.1h-40.5V551.1h277.1
	V761.5z"/>
<path fill="#3B3635" d="M532,573.5l-38.4,5.1l-5.3-92.8c-3.4-14.9-1.7-20.2-24-20.3V572H187.2V465.4c-14.7,0.1-18.8,2.5-20.9,8.5
	c0,0,0,0,0,0.1c-0.1,0.4-0.3,0.9-0.4,1.3c-0.6,2.1-1.1,4.5-1.7,7.4c-0.2,1-0.4,2-0.6,3l-0.7,12l0,0.2l-4.8,80.7l-38.3-5.1l4.4-75.6
	l0.7-11.1l0.7-11.4c0-0.5,0.1-0.9,0.1-1.4c0.4-3.8,1.2-7.4,2.5-10.8c6.3-16.8,23-28.4,41.9-27.3l17.3,1v-15.2
	c0.6,0.4,44.9,19.7,77.7,24.2c18.7,2.6,39.2,4.1,60.8,4.1c21.8,0,42.5-1.5,61.2-4.1c32.6-4.6,77.2-24.2,77.2-24.2l0.1,15.2l17.6-1
	c23.2-1.3,43.1,16.4,44.5,39.6L532,573.5z"/>
<path fill="#9F2A15" d="M464.3,435.6L464.3,435.6c-0.1,0-44.8,19.6-77.3,24.2c-18.7,2.7-39.5,4.1-61.2,4.1
	c-21.6,0-42.2-1.4-60.8-4.1c-32.8-4.6-77.1-23.8-77.7-24.2v-14c0.6,0.4,44.9,19.7,77.7,24.2c18.7,2.6,39.2,4.1,60.8,4.1
	c21.8,0,42.5-1.5,61.2-4.1c32.6-4.6,77.2-24.2,77.2-24.2L464.3,435.6z"/>
<rect x="187.1" y="473.9" fill="#9F2A15" width="277.2" height="24"/>
<path fill="#9F2A15" d="M166.3,473.9C166.3,473.9,166.3,473.9,166.3,473.9c-0.2,0.6-1.1,4.5-2.1,8.8c-0.2,1-0.4,2-0.6,3l-0.7,12
	l0.1-1.2l-38.1-9.7l0.7-11.4c0-0.5,0.1-0.9,0.1-1.4c0.4-3.8,1.2-7.4,2.5-10.8L166.3,473.9z"/>
<polygon fill="#9F2A15" points="161.3,520.1 159.9,543.5 121.8,537 123.2,512.8 "/>
<polygon fill="#9F2A15" points="158.6,568.1 157.8,582.9 119.6,577.2 120.4,562 "/>
<path fill="#9F2A15" d="M485.5,473.9C485.5,473.9,485.5,473.9,485.5,473.9c0.2,0.6,1.1,4.5,2.1,8.8c0.2,1,0.4,2,0.6,3l0.7,12
	l-0.1-1.2l38.1-9.7l-0.7-11.4c0-0.5-0.1-0.9-0.1-1.4c-0.4-3.8-1.2-7.4-2.5-10.8L485.5,473.9z"/>
<polygon fill="#9F2A15" points="490.3,520 491.6,543.3 530,537 528.5,512.8 "/>
<polygon fill="#9F2A15" points="493,568.1 493.9,582.9 532.2,577.2 531.4,562 "/>
<rect x="187.1" y="523" fill="#9F2A15" width="277.2" height="24"/>
<rect x="187.1" y="758.6" fill="#422F27" width="40.5" height="38"/>
<rect x="423.9" y="758.6" fill="#422F27" width="40.3" height="38"/>
<g>
	<g>
		
			<text transform="matrix(1 0 0 1 95.013 960.5958)" fill="#8F1316" font-family="'ITCFranklinGothicStd-BkXCp'" font-size="88.5407">30 DAYS OF SCREAMS</text>
	</g>
	<g>
		
			<text transform="matrix(1 0 0 1 95.013 1049.1368)" fill="#8F1316" font-family="'ITCFranklinGothicStd-BkXCp'" font-size="63.7493">DAY 4: NIGHTMARE ON ELM ST</text>
	</g>
	<g>
		
			<text transform="matrix(1 0 0 1 95.013 1119.625)" fill="#8F1316" font-family="'ITCFranklinGothicStd-BkXCp'" font-size="40.5516">OCTOBER 4 - THE MAYFAIR - 1074 BANK STREET </text>
	</g>
	<line fill="none" stroke="#8F1316" stroke-width="6" stroke-miterlimit="10" x1="95" y1="983.1" x2="553.2" y2="983.1"/>
	<line fill="none" stroke="#8F1316" stroke-width="6" stroke-miterlimit="10" x1="95" y1="1070.7" x2="553.2" y2="1070.7"/>
</g>
</svg>
