<?xml version="1.0" encoding="utf-8"?>
<!-- Generator: Adobe Illustrator 18.1.0, SVG Export Plug-In . SVG Version: 6.00 Build 0)  -->
<svg version="1.1" id="Layer_1" xmlns="http://www.w3.org/2000/svg" xmlns:xlink="http://www.w3.org/1999/xlink" x="0px" y="0px"
	 viewBox="0 0 350 350" enable-background="new 0 0 350 350" xml:space="preserve">
<g>
	<path fill="#FFFFFF" d="M188.1,297.7c2.3,2.8,5.1,5.6,7.9,8.9c1.9,1.9,3.7,3.3,5.6,5.1L188.1,297.7z"/>
	<path fill="#FFFFFF" d="M126,172.7L126,172.7c0,0,91,96.1,102.7,105.5c0,0,19.1,17.3,30.8,22.4c17.7,7.9,38.3,10.7,58.8,10.7
		c7.5,0,14.5-0.5,21-0.9v37.8c-6.1,0-13.1,0.5-21,0.5c-57.4,0-93.3-15.4-117.1-36.9l-13.1-13.5L68.1,172.7
		c0,0,125.1-127.9,127.9-130.7c1.9-1.9,3.7-3.7,5.6-5.1C225.4,15.4,260.9,0,318.7,0c7.9,0,14.9,0,21,0.5v37.8
		c-6.5-0.5-13.5-0.9-21-0.9c-20.5,0-41.1,2.8-58.8,10.7C247.8,53.2,228.7,70,228.7,70C217,79.3,126,172.7,126,172.7z"/>
</g>
<polygon fill="#FFFFFF" points="339.7,277.7 337.4,276.3 266.9,227.7 337.4,179.7 339.3,178.3 "/>
<g>
	<path fill="#FFFFFF" d="M11.2,0v348.1h47.6V0H11.2z"/>
</g>
</svg>
