<?xml version="1.0" encoding="utf-8"?>
<!-- Generator: Adobe Illustrator 18.1.0, SVG Export Plug-In . SVG Version: 6.00 Build 0)  -->
<svg version="1.1" id="Layer_1" xmlns="http://www.w3.org/2000/svg" xmlns:xlink="http://www.w3.org/1999/xlink" x="0px" y="0px"
	 viewBox="0 0 525 375" enable-background="new 0 0 525 375" xml:space="preserve">
<rect fill="#DDE3E8" width="525" height="375"/>
<g>
	
		<rect x="140.9" y="41.2" transform="matrix(0.9863 0.1652 -0.1652 0.9863 34.1656 -40.8119)" fill="#FFFFFF" width="243.1" height="287.7"/>
	
		<rect x="166.3" y="60.7" transform="matrix(0.9863 0.1652 -0.1652 0.9863 30.3138 -41.8735)" fill="none" width="201.3" height="201.3"/>
	
		<rect x="165.5" y="65.7" transform="matrix(-0.9863 -0.1652 0.1652 -0.9863 501.1055 374.3326)" fill="#F2F2F2" width="201.3" height="201.3"/>
	
		<rect x="237.4" y="186.9" transform="matrix(0.9863 0.1652 -0.1652 0.9863 36.8442 -40.0947)" fill="#CDD0D0" width="44.2" height="29.1"/>
	
		<rect x="145.2" y="280.6" transform="matrix(0.9863 0.1652 -0.1652 0.9863 53.504 -35.8367)" fill="none" width="194.1" height="46.3"/>
	
		<text transform="matrix(0.9863 0.1652 -0.1652 0.9863 206.1904 295.163)" fill="#034750" font-family="'Rockwell'" font-size="30.3368">Peter</text>
	<path fill="#CDD0D0" d="M237.5,157.2c-0.3,1.9-2.1,3.2-4.1,2.9c-1.6-0.3-2.8-1.6-2.9-3.1l0-0.3l-1.5-15.7l0,0
		c-0.1-0.4-0.1-0.7,0-1.1c0.3-1.9,2.1-3.2,4.1-2.9c1.6,0.3,2.8,1.6,2.9,3.1l0,0.3l1.5,15.5C237.6,156.4,237.6,156.8,237.5,157.2z"/>
	<path fill="#CDD0D0" d="M294.3,166.7c-0.3,1.9,1,3.8,2.9,4.1c1.6,0.3,3.1-0.6,3.8-2l0.1-0.2l6.6-14.3l0,0c0.2-0.3,0.3-0.7,0.3-1
		c0.3-1.9-1-3.8-2.9-4.1c-1.6-0.3-3.1,0.6-3.8,2l-0.1,0.2l-6.5,14.2C294.5,165.9,294.4,166.3,294.3,166.7z"/>
	<path fill="#CDD0D0" d="M339.9,275.6l-180.4-30.2l14-24.6l0,0c2.4-4.4,6.4-7.7,11-9.3c0,0,0,0,0,0l7-1.1l45.6-6.9l44.2,7.4
		l41.4,21.8l2.8,1.5c0,0,0,0,0,0c4.7,3,8,7.9,9,13.5l0,0L339.9,275.6z"/>
	<path fill="#034750" d="M339.9,275.6l-180.4-30.2l14-24.6l0,0c2.4-4.4,6.4-7.7,11-9.3c0,0,0,0,0,0l7-1.1l45.6-6.9l44.2,7.4
		l41.4,21.8l2.8,1.5c0,0,0,0,0,0c4.7,3,8,7.9,9,13.5l0,0L339.9,275.6z"/>
	<path fill="#D9DBDC" d="M305.6,145.5c-0.4,2.1-0.9,4.1-1.6,6.1l-0.1,0.2l-0.9,2.3l-9.9,25.1l0,0c-4.8,13.3-18.6,21.7-33.1,19.3
		c-14.6-2.4-25-15.1-25-29.4l0,0l-1.2-26.6l-0.1-2.1l0,0c0-2.2,0.1-4.4,0.5-6.6c3.3-19.7,21.9-33,41.6-29.7
		C295.6,107.1,308.9,125.8,305.6,145.5z"/>
	<path fill="#034750" d="M302.7,103.4c0,0,24.1,11.4-2.1,56.4c0,0,2.8-34.3-6.1-43.1c0,0-49.8-15.1-60.4,31.9
		c0,0-11.9-44.1,18.7-57.9C252.7,90.7,282.4,77.2,302.7,103.4z"/>
	<path fill="#FFFFFF" d="M271.3,166.5c0,0-5-0.8-11.4-1.9C259.8,164.6,264.2,171.7,271.3,166.5z"/>
	<path fill="#FFFFFF" d="M278.3,179.6c0,0-12.8-2-29.5-4.9C248.9,174.6,260.1,193.1,278.3,179.6z"/>
	<path fill="none" stroke="#034750" stroke-width="2" stroke-linecap="round" stroke-miterlimit="10" d="M243.4,141
		c0,0,7.7-5.6,19.1,3.6"/>
	<path fill="#FFFFFF" d="M260.5,149.8c0,0-6.5-10.4-17.1-2.9C243.5,146.9,249.9,157.6,260.5,149.8z"/>
	<path fill="none" d="M260.5,149.8c0,0-6.5-10.4-17.1-2.9C243.5,146.9,249.9,157.6,260.5,149.8z"/>
	<path fill="none" stroke="#034750" stroke-width="2" stroke-linecap="round" stroke-miterlimit="10" d="M294.6,149.5
		c0,0-5.5-7.8-19.3-2.8"/>
	<path fill="#FFFFFF" d="M275.5,152.3c0,0,9.6-7.7,17.1,2.9C292.6,155.1,283,163.1,275.5,152.3z"/>
	<path fill="none" d="M275.5,152.3c0,0,9.6-7.7,17.1,2.9C292.6,155.1,283,163.1,275.5,152.3z"/>
	<polygon fill="#FFFFFF" points="238.6,192.7 258.7,206.3 282.2,200 284.4,212.6 262.7,262.7 236.5,258.3 232,204.4 	"/>
	<polygon fill="#034750" points="263.8,217.4 255.9,223 250.3,215.2 258.7,206.8 	"/>
	<polygon fill="#034750" points="256.4,261.6 242.9,259.4 253.5,219.7 259.3,220.6 	"/>
	<g>
		<defs>
			<path id="SVGID_1_" d="M260.5,149.8c0,0-6.5-10.4-17.1-2.9C243.5,146.9,249.9,157.6,260.5,149.8z"/>
		</defs>
		<clipPath id="SVGID_2_">
			<use xlink:href="#SVGID_1_"  overflow="visible"/>
		</clipPath>
		<circle clip-path="url(#SVGID_2_)" fill="#87BD40" cx="252.2" cy="147.1" r="4.5"/>
	</g>
	<g>
		<defs>
			<path id="SVGID_3_" d="M275.5,152.3c0,0,9.6-7.7,17.1,2.9C292.6,155.1,283,163.1,275.5,152.3z"/>
		</defs>
		<clipPath id="SVGID_4_">
			<use xlink:href="#SVGID_3_"  overflow="visible"/>
		</clipPath>
		<circle clip-path="url(#SVGID_4_)" fill="#87BD40" cx="284.3" cy="152.4" r="4.5"/>
	</g>
	<g>
		<defs>
			<path id="SVGID_5_" d="M260.5,149.8c0,0-6.5-10.4-17.1-2.9C243.5,146.9,249.9,157.6,260.5,149.8z"/>
		</defs>
		<clipPath id="SVGID_6_">
			<use xlink:href="#SVGID_5_"  overflow="visible"/>
		</clipPath>
		<circle clip-path="url(#SVGID_6_)" fill="#034750" cx="252.2" cy="147.1" r="4.5"/>
	</g>
	<g>
		<defs>
			<path id="SVGID_7_" d="M275.5,152.3c0,0,9.6-7.7,17.1,2.9C292.6,155.1,283,163.1,275.5,152.3z"/>
		</defs>
		<clipPath id="SVGID_8_">
			<use xlink:href="#SVGID_7_"  overflow="visible"/>
		</clipPath>
		<circle clip-path="url(#SVGID_8_)" fill="#034750" cx="284.3" cy="152.4" r="4.5"/>
	</g>
</g>
</svg>
