<?xml version="1.0" encoding="utf-8"?>
<!-- Generator: Adobe Illustrator 18.1.0, SVG Export Plug-In . SVG Version: 6.00 Build 0)  -->
<svg version="1.1" id="Layer_1" xmlns="http://www.w3.org/2000/svg" xmlns:xlink="http://www.w3.org/1999/xlink" x="0px" y="0px"
	 viewBox="0 0 100 100" enable-background="new 0 0 100 100" xml:space="preserve">
<path fill="#339999" d="M50,0C22.5,0,0,22.2,0,50c0,27.5,22.2,50,50,50c27.5,0,50-22.2,50-50C99.7,22.5,77.5,0,50,0z M39.1,70.8
	h-9.8V39.7h9.8V70.8z M34.3,35.2c-3.1,0-5.7-2.4-5.7-5.5c0-3.1,2.4-5.7,5.7-5.7c3.1,0,5.5,2.6,5.5,5.7
	C39.8,32.8,37.4,35.2,34.3,35.2z M75.5,70.8h-9.8V55.7c0-3.6,0-8.4-5-8.4s-5.7,3.8-5.7,7.9v15.6h-9.6V39.7h9.3V44l0,0
	c1.2-2.4,4.5-5,9.1-5c9.8,0,11.7,6.5,11.7,14.8L75.5,70.8L75.5,70.8z"/>
</svg>
