<?xml version="1.0" encoding="utf-8"?>
<!-- Generator: Adobe Illustrator 18.1.0, SVG Export Plug-In . SVG Version: 6.00 Build 0)  -->
<svg version="1.1" id="Layer_1" xmlns="http://www.w3.org/2000/svg" xmlns:xlink="http://www.w3.org/1999/xlink" x="0px" y="0px"
	 viewBox="0 0 525 375" enable-background="new 0 0 525 375" xml:space="preserve">
<rect fill="#DDE3E8" width="525" height="375"/>
<g>
	<path fill="#EDCABD" d="M223.4,258.1c-4.9,0.3-5.4-5-5.6-7.6l-3-51.7c-0.8-18.2-1-21.5-13.3-21.3v174.8h-21.3v-51.8
		c0-22.2,0-22.2-24.1-22.2H99.8c-24.1,0-23.1,0-23.1,22.2v51.8H55.3V177.5c-12.2-0.1-12.3,3.3-13.1,21.3l-3,51.7
		c-0.1,2.6-0.6,7.8-5.5,7.6c-12-1-14.6-11.5-13.9-23.5l3-51.7c0.7-12.2,11.2-21.6,23.5-20.9l9.1,0.5V93.2
		c0-40.4,32.7-73.1,73.1-73.1c40.4,0,68.2,32.9,73.1,78.1v64.3l9.3-0.5c12.3-0.7,22.7,8.6,23.5,20.9l3,51.7
		C238,246.7,235.4,257.1,223.4,258.1z"/>
	<g>
		<path fill="#704C39" d="M201.5,99.2c-6.5-30.8-26.9-41.4-26.9-41.4c-17.9-7.5-29.5-3.3-34.7-0.5c-12,6.3-25.9,0.1-26.4,0.1
			c-15.7-8.1-29.2-0.1-29.2-0.1C58.8,70.5,55.3,99.2,55.3,99.2s-6-81.9,72.4-80.5C205.9,20.1,201.5,99.2,201.5,99.2z"/>
	</g>
	<path fill="#DC6231" d="M236.7,225.9l-20.2,2.3l-0.4-6.1l-2-33.9c-1.8-7.8-0.9-10.7-12.6-10.7v45.3h0.1l0,115.1h-21.3l0-37.3
		c0-22.2,0-22.2-24.1-22.2H99.8c-24.1,0-23.1,0-23.1,22.2l0,37.3H55.1l0.2-111.5h-0.1v-48.9c-11.6,0.1-10.7,2.9-12.5,10.7l-2,33.9
		l-0.4,6.1l-20.3-2.3l0.4-6.3h0l2.1-36.8c0.7-12.2,11.2-21.6,23.5-20.9l9.1,0.5l0-1.8l39.1,11.2l9,2.3l15.6-17l9.5,14.3l9.5-14.3
		l15.6,17l9.1-2.4l38.9-12.2v2.8l9.2-0.5c12.3-0.7,22.7,8.6,23.5,20.9l2.1,36.8L236.7,225.9z"/>
	<polygon fill="#CE5C2D" points="201.5,144.2 201.5,161.6 151.5,175 137.8,157.2 	"/>
	<polygon fill="#CE5C2D" points="55.2,144.2 55.2,161.6 105.2,175 118.9,157.2 	"/>
	<line fill="none" stroke="#CE5C2D" stroke-miterlimit="10" x1="128.4" y1="171.7" x2="128.4" y2="264.9"/>
	<line fill="none" stroke="#67686B" stroke-width="3" stroke-miterlimit="10" x1="127.7" y1="123.8" x2="127.7" y2="136.6"/>
	<line fill="none" stroke="#67686B" stroke-width="3" stroke-miterlimit="10" x1="131.7" y1="121.8" x2="135.3" y2="136.6"/>
	<line fill="none" stroke="#67686B" stroke-width="3" stroke-miterlimit="10" x1="124.2" y1="121.8" x2="120.6" y2="136.6"/>
	<path fill="#C7BA98" d="M201.1,95.1c-7.3,9.4-20.4,15.7-35.5,15.7c-11.8,0-22.5-3.9-30-10.1c-0.7-0.6-1.4-1.2-2.1-1.8
		c-1.8-1.3-3.8-2-5.9-2c-1.8,0-3.5,0.5-5.1,1.5c0,0,0,0,0,0c-0.2,0.1-0.5,0.3-0.7,0.5c-0.4,0.4-0.8,0.7-1.3,1
		c-8.7,6.7-22.6,10.9-30.9,10.9c-14.2,0-26.7-5.6-34.2-14.1c-0.1,0.8-0.1,1.7-0.1,2.5c0,31.2,32.6,56.5,72.9,56.5
		c40.3,0,72.9-25.3,72.9-56.5C201.3,97.9,201.3,96.5,201.1,95.1z M133.8,136.6h-12.2c-3.5,0-6.4-2.9-6.4-6.4c0-1.8,0.7-3.4,1.9-4.6
		c1.2-1.1,2.8-1.9,4.5-1.9h12.2c3.5,0,6.4,2.9,6.4,6.4C140.2,133.7,137.3,136.6,133.8,136.6z"/>
	<rect x="55.1" y="337.9" fill="#4C3C36" width="21.6" height="14.5"/>
	<rect x="180.3" y="337.9" fill="#4C3C36" width="21.2" height="14.5"/>
</g>
<g>
	<path fill="#D7B7A9" d="M488.1,258c-5,0.3-5.4-5-5.6-7.6l-3-51.8c-0.8-18.2-1-21.5-13.3-21.4v175.2h-21.3v-51.9
		c0-22.3,0-22.3-24.2-22.3h-56.4c-24.2,0-23.2,0-23.2,22.3v51.9h-21.4V177.2c-12.2-0.1-12.3,3.3-13.1,21.4l-3,51.8
		c-0.1,2.6-0.6,7.9-5.5,7.6c-12-1-14.6-11.5-13.9-23.6l3-51.9c0.7-12.3,11.2-21.6,23.5-20.9l9.1,0.5V92.8
		c0-40.5,32.8-73.3,73.3-73.3c40.5,0,73.3,32.8,73.3,73.3v69.4l9.3-0.5c12.3-0.7,22.8,8.7,23.5,20.9l3,51.9
		C502.7,246.5,500.1,257,488.1,258z"/>
	<path fill="#0E0542" d="M466.4,352.4h-21.3v-51.9c0-22.3,0-22.3-24.2-22.3h-56.4c-24.2,0-23.2,0-23.2,22.3v51.9h-21.4V222.6h146.5
		V352.4z"/>
	<path fill="#002A41" d="M499.1,182.8l-20.1,5.5c-1.8-7.9-0.9-10.7-12.7-10.8v49H319.8v-49c-11.6,0.1-10.7,2.9-12.5,10.7l-20.1-5.5
		c0.7-12.3,11.2-21.6,23.5-20.9l9.1,0.5v-8c0.3,0.2,23.8,10.4,41.1,12.8c9.9,1.4,20.7,2.2,32.2,2.2c11.5,0,22.5-0.8,32.4-2.2
		c17.2-2.4,39.8-12.1,39.8-12.1c0.4-0.2,0.7,7,1.1,6.7v0.6l9.3-0.5C487.9,161.2,498.4,170.6,499.1,182.8z"/>
	<path fill="#5B3C18" d="M360.5,166.7v97.6h-40.7v-86.7c-11.6,0.1-10.6,2.6-12.4,10.5l-2.7,46.9l-20.8-2.2l3.2-50.2
		c0.7-12.3,11.4-21.6,23.7-20.9l9,0.5V144L360.5,166.7z"/>
	<polygon fill="#764D21" points="319.8,143.9 327.9,163.6 360.5,166.7 360.5,166.7 	"/>
	<path fill="#5B3C18" d="M426,166.7v97.6h40.3l0.3-86.9c11.6,0.1,10.7,2.9,12.5,10.7l2.8,44.7l19.8-1.9l-2.5-48.3
		c-0.7-12.3-11.2-21.6-23.5-20.9l-9.4,0.5V144L426,166.7z"/>
	<polygon fill="#764D21" points="466.3,144 458.4,163.4 426,166.7 426,166.7 	"/>
	<rect x="319.9" y="337.6" width="21.2" height="14.8"/>
	<rect x="445.2" y="337.6" width="21.2" height="14.8"/>
	<path d="M480.9,228.2l1.5,22.3c0.1,2.6,0.6,7.9,5.5,7.6c16.9-1.1,16-19.6,15.2-31.6L480.9,228.2z"/>
	<path d="M305.1,228.2l-1.5,22.3c-0.1,2.6-0.6,7.9-5.5,7.6c-16.9-1.1-16-19.6-15.2-31.6L305.1,228.2z"/>
	<path fill="none" d="M319.7,121v-12.4 M466.2,121.8v-14.5"/>
	<path fill="#F2E4D5" d="M392.9,19.5c-40.5,0-73.3,32.8-73.3,73.3V121c6.7,26.6,37,46.7,73.4,46.7c36,0,66-19.7,73.1-45.9v-29
		C466.2,52.3,433.4,19.5,392.9,19.5z"/>
	<path fill="#A9A3A3" d="M400,29.4c0,1.3-1,2.3-2.3,2.3h-9.1c-1.3,0-2.3-1-2.3-2.3v-9.1c0-1.3,1-2.3,2.3-2.3h9.1
		c1.3,0,2.3,1,2.3,2.3V29.4z"/>
	<path fill="#A9A3A3" d="M337.2,60.8c1.2,0.5,1.7,1.9,1.3,3l-3.5,8.4c-0.5,1.2-1.8,1.7-3,1.3l-8.4-3.5c-1.2-0.5-1.7-1.8-1.3-3
		l3.5-8.4c0.5-1.2,1.8-1.7,3-1.3L337.2,60.8z"/>
	<path fill="#A9A3A3" d="M448.5,60.8c-1.2,0.5-1.7,1.9-1.3,3l3.5,8.4c0.5,1.2,1.8,1.7,3,1.3l8.4-3.5c1.2-0.5,1.7-1.8,1.3-3l-3.5-8.4
		c-0.5-1.2-1.8-1.7-3-1.3L448.5,60.8z"/>
	<path fill="#464547" d="M351.1,85.2c0,5.2,5.9,9.4,13.2,9.4c7.3,0,13.2-4.2,13.2-9.4c0-5.2-5.9-9.4-13.2-9.4
		C357,75.8,351.1,80,351.1,85.2z"/>
	<path fill="#464547" d="M407.7,85.2c0,5.2,5.9,9.4,13.2,9.4c7.3,0,13.2-4.2,13.2-9.4c0-5.2-5.9-9.4-13.2-9.4
		C413.6,75.8,407.7,80,407.7,85.2z"/>
	<path fill="#464547" d="M387.3,113c0,2.3,2.6,2.2,5.8,2.2c3.2,0,5.8,0,5.8-2.2c0-2.3-2.6-6-5.8-6C389.9,107,387.3,110.7,387.3,113z
		"/>
	<polygon opacity="0.8" fill="#D82122" points="366.7,68.5 418.8,68.5 393.1,78.2 	"/>
	<polygon opacity="0.8" fill="#D82122" points="366.7,109.5 341.7,129.5 348.4,133.2 	"/>
	<polygon opacity="0.8" fill="#D82122" points="418.8,109.5 443.8,129.5 437.1,133.2 	"/>
	<circle fill="#464547" cx="381.2" cy="129.3" r="3.8"/>
	<circle fill="#464547" cx="405.1" cy="129.3" r="3.8"/>
	<circle fill="#464547" cx="381.2" cy="54.2" r="3.8"/>
	<circle fill="#464547" cx="362.9" cy="54.2" r="3.8"/>
	<circle fill="#464547" cx="405.1" cy="54.2" r="3.8"/>
	<circle fill="#464547" cx="422.6" cy="54.2" r="3.8"/>
	<circle fill="#464547" cx="381.2" cy="146" r="3.8"/>
	<circle fill="#464547" cx="405.1" cy="146" r="3.8"/>
</g>
</svg>
